<svg xmlns="http://www.w3.org/2000/svg" height="93.707" width="447.739" viewBox="0 0 449.37 95.707"><g transform="matrix(1.3333 0 0 -1.3333 0 93.707)"><g transform="translate(.94383 -.94383)"><path transform="matrix(.75 0 0 -.75 0 70.28)" d="m0 44.42 9.1855 7.6074v41.68h20.6v-15.801l22.273-0.01563 4.1973-10.988-26.471 0.01953v-11.488h32.332v-11.014zm69.197 0 9.4688 7.4258-16.096 41.861h18.986l4.9805-13.357h23.73l5.0879 13.357h19.018l-19.338-49.287zm65.174 0 9.4082 7.4961v41.791h45.402v-12.572h-25.033v-36.715zm54.459 0 9.4492 7.4531v41.834h47.084v-12.572h-26.609v-25.701h26.609v-11.014zm60.77 0 9.4062 7.4043v41.883h56.449v-49.287zm70.791 0 9.1387 7.3848v41.902h19.797v-21.715l23.74 21.715h11.377v-49.287h-19.857v21.334l-23.676-21.334zm69.018 0 9.0156 7.2891v21.611l29.105-0.02148v7.8359h-29.105v12.572h48.945v-31.387h-29.139v-6.8867h29.139v-11.014zm-117.39 11.014h23.676v25.701h-16.809v-20.025zm-176.7 1.377h5.9883l4.8047 12.615h-15.496z"/><path transform="matrix(.75 0 0 -.75 0 70.28)" d="m103.04 0 4.7656 3.7383-8.1016 21.072h9.5566l2.5078-6.7246h11.945l2.5625 6.7246h9.5723l-9.7344-24.811zm31.547 0 2.209 5.5625h9.2285v19.248h10.434v-16.504l-3.3574-2.7441h14.066v-5.5625zm36.725 0 4.5527 3.8516v20.959h22.781l-0.0254-6.2891-12.541 0.0078v-18.529zm35.078 0 4.7637 3.7383-8.0996 21.072h9.5566l2.5059-6.7246h11.945l2.5625 6.7246h9.5742l-9.7344-24.811zm33.762 0 4.5234 3.9141v20.896h9.8887v-10.797l11.859 10.797h5.7226v-24.811h-9.8984v10.893l-11.826-10.893zm37.762 0v5.5625h10.762v19.248h10.436v-16.504l-3.3574-2.7441h14.076l-0.01953-5.5625zm36.955 0 4.7656 3.7383-8.1035 21.072h9.5566l2.5078-6.7246h11.945l2.5605 6.7246h9.5742l-9.7344-24.811zm-198.68 6.2383h3.0137l2.418 6.3496h-7.7988zm103.35 0h3.0156l2.418 6.3496h-7.8008zm108.48 0h3.0156l2.416 6.3496h-7.7988z" fill="#a71930"/></g></g></svg>