<?xml version="1.0" encoding="UTF-8" standalone="no"?>
<svg xmlns:rdf="http://www.w3.org/1999/02/22-rdf-syntax-ns#" xmlns="http://www.w3.org/2000/svg" xml:space="preserve" height="48.6" viewBox="0 0 189.33749 48.588257" width="189" version="1.1" xmlns:cc="http://creativecommons.org/ns#" xmlns:dc="http://purl.org/dc/elements/1.1/"><g transform="matrix(1.25 0 0 -1.25 -284 519)"><g style="" transform="matrix(.25 0 0 .25 227 297)" fill="#00338d"><path d="m602 385c-2.41 5.54-5.83 10.6-10.1 14.9-4.26 4.26-9.34 7.69-14.9 10.1-5.66 2.45-11.8 3.71-18 3.7h-42.1c-2.18 0-4.13 0.394-6 1.19-1.9 0.823-3.51 1.89-4.89 3.28-1.39 1.39-2.96 4.19-2.79 8.32 0.136 3.3 1.39 5.25 2.79 6.64 1.38 1.39 3 2.45 4.9 3.27 1.86 0.802 3.81 1.19 5.99 1.19h22.9c2.03 0 3.88-0.381 5.68-1.17 1.84-0.802 3.5-1.94 4.94-3.38 1.46-1.46 2.57-3.08 3.39-4.94 0.782-1.78 1.16-3.7 1.16-5.85v-1.3h37.9 5.51v51.7h-43.4v-2.01c-4.81 1.68-9.89 2.54-15.2 2.54h-33.4c-6.25 0.007-12.5-1.24-18.2-3.69-5.56-2.38-10.7-5.81-14.9-10.1-4.21-4.28-7.59-9.34-9.98-14.9-2.47-5.71-3.69-11.9-3.69-18.2 0-6.22 1.23-14.9 3.7-20.6 2.39-5.53 5.83-10.6 10.1-14.8 4.28-4.21 9.34-7.6 14.9-9.98 5.73-2.47 11.9-3.71 18.2-3.7h42.1c2.03 0 3.89-0.381 5.68-1.17 1.86-0.816 3.48-1.92 4.94-3.38s3.09-4.4 3.02-6.43c-0.129-4.27-1.59-6.98-2.99-8.41-1.39-1.43-2.96-2.52-4.79-3.33-1.8-0.789-3.71-1.17-5.86-1.17h-22.9c-2.17 0-4.12 0.388-5.99 1.19-1.91 0.816-3.51 1.88-4.89 3.28-1.39 1.38-2.46 2.98-3.28 4.89-0.796 1.86-1.19 3.82-1.19 5.99v1.29h-37.9-5.51v-51.7c14.5 0 28.9 0 43.4-0.007v2.06c4.88-1.71 10-2.59 15.3-2.59h33.4c6.23-0.0136 12.4 1.23 18.2 3.71 5.54 2.39 10.6 5.83 14.8 10.1 4.22 4.28 7.6 9.34 9.98 14.9 2.47 5.72 3.7 11.9 3.7 18.2 0 6.16-1.24 14.8-3.7 20.5"/><path d="m208 436v37h-13.4-37.9-13.4v-37c5.37 0 10.9-1.03 10.9-9.07v-63c0-7.85-5.58-9.43-10.9-9.43v-37h13.4 37.9 13.4v37c-7.17 0-10.9 1.57-10.9 9.63v63c0 6.24 2.41 8.87 10.9 8.87"/><path d="m97.2 421c-0.809-1.87-1.94-3.55-3.35-5-1.39-1.43-2.94-2.52-4.79-3.33-1.78-0.789-3.7-1.17-5.85-1.17h-31.8c0 10.2-0.0068 16.2 0 26.4 12 0.007 19.8 0 31.8 0 2.03 0 3.88-0.381 5.67-1.17 1.86-0.809 3.47-1.92 4.94-3.38 1.46-1.46 2.57-3.08 3.38-4.94 0.782-1.78 0.782-5.59 0-7.38zm-0.0136-57.8c-0.816-1.91-1.94-3.6-3.34-5.04-1.39-1.43-2.94-2.52-4.79-3.33-1.78-0.789-3.7-1.17-5.85-1.17h-31.8c-0.0068 10.2-0.0068 16.2 0 26.4h31.8c2.02 0 3.88-0.388 5.67-1.17 1.86-0.823 3.47-1.92 4.93-3.38 1.47-1.47 2.58-3.09 3.39-4.94 0.782-1.79 0.782-5.47-0.0136-7.34zm39.5 81.6c-2.38 5.51-5.76 10.6-9.97 14.9-4.23 4.3-9.3 7.73-14.8 10.1-5.73 2.48-11.9 3.72-18.2 3.71h-42.5-37.8-13.5v-37c5.43 0 9.41-1.42 9.41-7.86v-65.2c0-5.24-3.98-8.43-9.41-8.43v-37h13.5 37.8 42.5c6.24-0.0136 12.4 1.23 18.2 3.71 5.52 2.39 10.6 5.83 14.8 10.1 4.21 4.28 7.59 9.34 9.97 14.9 2.48 5.72 3.69 12 3.7 18.2 0.0136 11.4-3.93 22.5-11.6 30.9 7.7 8.46 11.6 19.6 11.6 30.9-0.0136 6.22-1.22 12.4-3.7 18.2"/><path d="m291 370v-5.96c0-2.65-0.0136-11-10.3-11-11.1 0-12.2 8.03-12.2 11v63c0 10.1 10.8 8.87 10.8 8.87v37h-13.3-0.163-37.7-13.3v-37c11.4 0 10.8-8.87 10.8-8.87v-63s0.775-9.63-10.8-9.63v-37h13.3 62.9 43.4v31.5 21.1h-43.4"/><path d="m417 370v-5.96c0-2.65-0.007-11-10.3-11-11.1 0-12.2 8.03-12.2 11v63c0 10.1 10.8 8.87 10.8 8.87v37h-13.3-0.163-37.7-13.3v-37c11.4 0 10.8-8.87 10.8-8.87v-63s0.775-9.63-10.8-9.63v-37h13.3 62.9 43.4v31.5 21.1h-43.4"/></g></g></svg>