<svg xmlns="http://www.w3.org/2000/svg" height="185.25" width="406.86" viewBox="0 0 410.86 189.25">
 <g transform="matrix(1.3333 0 0 -1.3333 -203.43 619.55)">
  <path d="m163.07 463.01c-4.2789 0-8.8352-4.2332-8.8352-8.8865v-40.455c0-4.843 4.5288-8.8608 8.8352-8.8843h14.826c4.4554 0 8.8345 4.0413 8.8345 8.8843v11.559h-12.677v-9.0029h-7.1411v35.286h7.1411v-8.9399h12.677v11.553c0 4.6532-4.4033 8.8865-8.8352 8.8865zm27.401 0v-58.226h25.389v11.814h-12.062v46.412zm28.537 0v-58.226h28.006v11.813h-14.679v12.065h12.99v11.815h-12.99v10.718h14.509v11.815zm69.42 0v-58.226h28.008v11.813h-14.68v12.065h12.991v11.815h-12.991v10.718h14.509v11.815zm32.114 0v-58.226h25.386v11.814h-12.059v46.412zm36.167 0-8.3525-58.226h12.821l1.262 11.814h8.3738l1.2671-11.814h12.801l-8.3533 58.226zm69.116 0v-58.226h24.674c4.3146 0 8.8748 4.027 8.8748 8.8843v40.455c0 4.6676-4.5602 8.8865-8.8748 8.8865zm-176.08-4e-3 7.9336-58.222h19.399l7.9299 58.222h-11.959l-5.6426-44.503-5.6462 44.503zm137.85 0v-58.222h11.814v28.048l10.8-28.048h11.391v58.222h-11.814v-27.378l-10.885 27.378zm-20.97-8.6155 3.1289-26.908h-6.2769zm72.406-2.231h7.144v-36.333h-7.144zm-284.79-53.211v-74.875h31.764c5.557 0 11.421 5.1758 11.421 11.424v19.972l-4.9775 6.7947 4.9775 6.7954v18.454c0 6.0027-5.8644 11.435-11.421 11.435zm46.927-4e-3v-74.871h17.146v29.295h4.9629l7.7036-29.295h17.36l-8.6785 31.25 5.669 7.4839v24.707c0 6.0027-5.969 11.431-11.425 11.431zm60.265 0c-5.508 0-11.372-5.4466-11.372-11.431v-52.016c0-6.2271 5.8296-11.424 11.372-11.424h20.223c5.7712 0 11.369 5.1972 11.369 11.424v52.016c0 5.9844-5.6665 11.431-11.372 11.431zm34.042 0 8.2478-74.871h19.923l6.3618 45.315 6.4482-45.315h19.889l8.2485 74.871h-15.677l-3.6101-47.773-7.3323 47.773h-15.769l-6.5076-47.773-4.4883 47.773zm72.858 0v-74.871h15.193v36.068l13.886-36.068h14.649v74.871h-15.191v-35.208l-13.998 35.208zm59.624 0c-5.4774 0-11.315-5.4466-11.315-11.431v-25.576l8.3701-8.0427h17.674v-15.041h-9.1948v8.2881h-16.849v-11.648c0-5.9874 5.8378-11.421 11.315-11.421h20.135c5.6844 0 11.292 5.2528 11.292 11.369v25.956l-7.897 8.0076h-17.996v14.822h9.1948v-8.3591h16.698v11.698c-0.0337 5.9629-5.651 11.379-11.313 11.379zm-209.64-13.023h9.1948v-19.534h-9.1948zm-47.076-0.22339h9.1934v-16.884h-9.1934zm95.706-1.5454h9.1978v-45.371h-9.1978zm-95.706-28.712h9.1934v-17.764h-9.1934z" fill="#f30"/>
 </g>
</svg>