<svg xmlns="http://www.w3.org/2000/svg" xml:space="preserve" height="32.931" viewBox="0 0 190.77251 32.930775" width="190.77"><g transform="matrix(1.25 0 0 -1.25 -286.16 511.2)"><g transform="translate(0 .40092)"><g fill="#0A2343"><path d="m282.67 394.57c-3.5298 0-6.3904 2.3611-6.3904 5.274 0 2.9139 2.8606 5.275 6.3904 5.275 3.5289 0 6.3905-2.3611 6.3905-5.275 0-2.9129-2.8616-5.274-6.3905-5.274zm0 13.992c-5.9453 0-10.765-3.904-10.765-8.718 0-4.815 4.82-8.719 10.765-8.719 5.9443 0 10.764 3.904 10.764 8.719 0 4.8141-4.82 8.718-10.764 8.718"/><path d="m350.42 394.57c-3.5289 0-6.3914 2.3611-6.3914 5.274 0 2.9139 2.8626 5.275 6.3914 5.275 3.5298 0 6.3914-2.3611 6.3914-5.275 0-2.9129-2.8616-5.274-6.3914-5.274zm0 13.992c-5.9433 0-10.763-3.904-10.763-8.718 0-4.815 4.82-8.719 10.763-8.719 5.9463 0 10.765 3.904 10.765 8.719 0 4.8141-4.819 8.718-10.765 8.718"/><path d="m240.96 395.32c-0.004 0-6.1763-0.004-6.1763-0.004v3.0679s6.1723-0.004 6.1763-0.004c1.4964 0 2.7096-0.68405 2.7096-1.529 0-0.84398-1.2131-1.531-2.7096-1.531zm-6.1654 9.1544s5.7548 0.002 5.7587 0.002c1.3948 0 2.526-0.63868 2.526-1.4254 0-0.7877-1.1312-1.4264-2.526-1.4264-0.004 0-5.7587 0.002-5.7587 0.002v2.8478zm11.026-4.3126v0.0405c0.87654 0.48368 2.1252 1.0967 2.144 3.2811 0.0158 2.0166-1.9683 4.1734-6.7132 4.1734h-11.35v-5.9433h-0.9792v-3.291h0.9792v-6.3638h11.817c3.6513 0 6.6481 1.993 6.6481 4.5347 0 2.1223-1.5685 3.2002-2.5457 3.5684"/><path d="m262.45 401.55c-0.004 0-5.7587 0.002-5.7587 0.002v2.8478s5.7548 0.002 5.7587 0.002c1.3938 0 2.526-0.63865 2.526-1.4274 0-0.78673-1.1322-1.4244-2.526-1.4244zm3.2002-2.9268c2.8122 0.67518 4.3896 2.5388 4.3896 4.4192-0.002 1.8005-2.0778 4.5732-6.8218 4.5732h-11.349v-5.9443h-0.98118v-3.289h0.98118v-6.3658h4.8526v6.3411h3.8447l5.1645-6.3737h5.5958l-5.6768 6.6392"/><path d="m337.96 403.57v4.3324l-9.108 0.009c-5.6176-0.17075-10.035-3.748-10.035-8.0814 0-4.4459 4.7164-8.0468 10.532-8.0468 0.004 0 6.8021-0.003 8.6104-0.006v4.3067h-5.0372v-0.93873h-3.67c-3.2999 0.0849-5.9414 2.1528-5.9414 4.6966 0 2.5408 2.6129 4.6384 5.9127 4.7232 0 0 2.3602 0 3.671-0.002l-0.004-0.995 5.0688 0.002"/><path d="m310.71 407.58v-3.2061h0.94565v-6.8712l-10.785 10.077h-4.8624v-15.646h4.8624v10.106l10.785-10.106h4.8614v15.646h-5.8071"/><path d="m374.56 401.55h-4.7094c-1.2339 0-2.2446 0.70775-2.2446 1.5714 0 0.8637 1.0108 1.5685 2.2446 1.5685h6.6876v-0.99202h4.0352v4.2948h-11.018c-3.8418 0-6.9827-2.1667-6.9827-4.8141 0-2.6484 3.1409-4.816 6.9827-4.816h4.7094c1.2339 0 2.2446-0.70577 2.2446-1.5695 0-0.8637-1.0108-1.5705-2.2446-1.5705h-6.6876v0.99303h-4.0352v-4.2958h11.018c3.8418 0 6.9827 2.1667 6.9827 4.816 0 2.6464-3.141 4.8141-6.9827 4.8141"/></g><g fill="#FC4C02"><path d="m274.19 382.88h0.4758c0.71365 0 1.4017 0.53008 1.4017 1.457 0 0.9259-0.68803 1.458-1.4017 1.458h-0.4758v-2.9149zm-0.85285 3.5842h1.1648c1.303 0 2.4559-0.43827 2.4559-2.1272s-1.1529-2.1282-2.4559-2.1282h-1.1648v4.2554"/><path d="m285.97 386.47h2.5122v-0.66925h-1.6583v-1.0493h1.5172v-0.67022h-1.5172v-1.1954h1.6702v-0.67122h-2.524v4.2554"/><path d="m297.54 386.47h1.0473l1.6228-3.1814h0.0109v3.1814h0.8183v-4.2554h-1.0434l-1.6268 3.1834h-0.0138v-3.1834h-0.81532v4.2554"/><path d="m309.78 386.47h0.91405l1.0908-3.3413h0.0118l1.0799 3.3413h0.8479l-1.4332-4.2554h-1.0483l-1.4629 4.2554"/><path d="m322.51 386.47h2.5122v-0.66925h-1.6583v-1.0493h1.5172v-0.67022h-1.5172v-1.1954h1.6692v-0.67122h-2.523v4.2554"/><path d="m334.91 384.65h0.28132c0.4205 0 0.9022 0.0612 0.9022 0.59127 0 0.51133-0.47577 0.55575-0.9022 0.55575h-0.28132v-1.147zm-0.85285 1.8163h0.92095c0.91307 0 2.0048 0.0306 2.0048-1.151 0-0.50145-0.33563-0.91605-0.87753-0.98907v-0.0118c0.23098-0.0178 0.3662-0.24875 0.4511-0.43925l0.68308-1.6642h-0.95057l-0.51331 1.3306c-0.1214 0.31587-0.23097 0.43727-0.59127 0.43727h-0.2744v-1.7679h-0.85285v4.2554"/></g></g></g></svg>