<?xml version="1.0" encoding="UTF-8" standalone="no"?>
<svg xmlns:rdf="http://www.w3.org/1999/02/22-rdf-syntax-ns#" xmlns="http://www.w3.org/2000/svg" xml:space="preserve" height="58.128" viewBox="0 0 193.16936 58.127911" width="193.17" version="1.1" xmlns:cc="http://creativecommons.org/ns#" xmlns:dc="http://purl.org/dc/elements/1.1/"><g transform="matrix(1.25 0 0 -1.25 -286.75 522.25)"><path d="m178.58 1.0293c-5.67 0.1813-12.1 3.5933-12.1 10.586v7.643c0 12.039 14.69 11.003 14.68 17.726l0.01 4.977c0 1.277-0.17 2.934-1.22 3.416l-0.01 11.859c7.09-0.263 12.2-5.314 12.2-13.687v-7.113c0.14-15.061-15.04-11.108-15.06-20.657 0-1.323 0.29-3.054 1.48-3.467l0.02-11.283zm1.36 0.0215v11.369c1.03 0.55 1.38 2.13 1.38 3.359v2.348h9.61v-6.815c0-6.7928-5.81-9.9385-10.99-10.261zm-108.37 0.2812l-0.002 11.891c0.966 0.516 1.041 2.135 1.041 3.388v8.17h9.991v-13.469c0-6.7749-5.173-9.8007-11.03-9.98zm-1.363 0.0118c-6.003 0-11.75 3.1853-11.75 9.9682v36.098c0 6.487 5.921 9.606 11.752 9.867l-0.002-12.259c-1.044-0.399-1.078-1.674-1.078-3.36v-25.047c0-1.281 0.052-2.941 1.08-3.423 0 0 0.036-11.844-0.002-11.844zm32.489 1.0703l-5.829 19.049 0.033 15.508 6.176 19.396h10.59l-8.25-27.695 7.8-26.258-10.52 0.0001zm-69.792 0.0449l-8.021 53.957h11.879l3.834-32.447-2.311-21.51h-5.381zm9.127 0l-2.406 0.0332 3.629 33.264h-2.635l-1.324 10.82h5.338l0.834 9.84h12.334l-6.434-53.957h-9.336zm43.283 0v53.957h10.215v-21.797-32.16h-10.215zm30.032 0v53.957h10.07v-53.957h-10.07zm11.43 0v11.125h9.3v-11.125h-9.3zm12.4 0v53.957h10.14l0.01-53.957h-10.15zm11.59 0v10.598h0.14c1.74 0 2.49 0.832 2.49 3.404v5.523c0 2.572-0.75 3.407-2.49 3.407h-0.14l0.01 9.527c2.89 0.227 3.3 1.936 3.3 5.908v15.59h10.37v-16.723c0-4.906-2.09-8.086-4.99-8.25 3.4-0.201 4.92-6.536 4.92-9.761v-8.248c0-11.097-4.97-10.975-13.09-10.975h-0.52zm-149.8 0.0215v53.936h10.668l-0.035-53.936-10.633 0.0005zm11.994 0v10.648l0.433 0.001c1.893 0 2.026 0.834 2.026 3.406v10.594c0 2.195-0.017 3.404-1.871 3.404h-0.588v11.051h0.568c7.794 0 12.561-1.236 12.561-10.898v-17.252c0-11.073-3.556-10.954-12.561-10.954l-0.568 0.0005zm113.82 20.108v10.67h9.3v-10.67h-9.3zm-54.167 10.219v8.851c0 1.327 0.087 3.055-1.031 3.467l-0.008 12.111c5.15-0.217 11.03-3.469 11.03-9.826v-14.603h-9.991zm94.627 4.541v8.777c0 9.315 7.58 10.926 11.34 11.104l-0.01-11.86c-1.07-0.498-1.34-2.139-1.34-3.408v-4.613h-9.99zm-40.46 8.547v10.521h9.68v-10.521h-9.68z" transform="matrix(.8 0 0 -.8 229.4 417.8)" fill="#203731"/></g></svg>