<svg version="1.2" xmlns="http://www.w3.org/2000/svg" viewBox="0 0 1801 321" width="1801" height="321">
	<title>LA_Rams_wordmark-svg</title>
	<style>
		.s0 { fill: #003594 } 
	</style>
	<path id="Path 0" fill-rule="evenodd" class="s0" d="m1594 0.1c21.8 0 41.5 0.4 53.5 1.4 10.5 0.7 25.1 2.1 32.5 3 7.4 0.9 19.8 3 27.5 4.7 7.7 1.6 18 4.4 23 6 5 1.6 12.6 4.7 17 6.7 4.4 2 11.2 5.7 15 8.2 3.8 2.5 9.7 7.2 13.1 10.5 3.4 3.2 7.9 8.6 10 11.9 2.2 3.3 5.1 9.6 6.6 14 1.5 4.7 3.1 12.6 3.8 19 0.6 6 0.9 11.6 0.6 12.3-0.5 0.9-12 1.2-105.1 1.2l-0.7-4.2c-0.4-2.4-1.5-5.4-2.6-6.8-1-1.4-4.2-3.7-7.2-5.2-3-1.6-9.5-3.7-14.5-4.7-5-1.1-14.8-2.6-22-3.3-7.7-0.7-27.3-1.2-48-1.2-20.7 0-40.3 0.5-48 1.2-7.2 0.7-17 2.2-22 3.3-5 1-11.7 3.2-15 4.8-4 2-6.6 4.1-7.9 6.3-1.4 2.5-1.7 4.3-1.3 7.3 0.4 2.2 1.3 4.6 1.9 5.4 0.7 0.8 2.9 2.4 4.8 3.6 1.9 1.3 6.7 3.2 10.5 4.4 3.8 1.1 9.9 2.5 13.5 3.1 3.6 0.5 11.9 1.4 18.5 2 6.6 0.6 32 1.5 56.5 2 33.3 0.7 48.9 1.4 62 3 9.6 1.1 21.3 2.7 26 3.5 4.7 0.9 14.6 3.2 22 5.1 7.4 2 18 5.4 23.5 7.6 5.5 2.2 13.8 6.4 18.5 9.1 5.5 3.3 11.7 8.3 17.6 14.2 5 4.9 10.5 11.5 12.2 14.5 1.7 3 4.3 8.9 5.7 13 1.4 4.1 3 11.1 3.6 15.5 0.7 4.7 0.9 13.8 0.6 22-0.3 10.2-1.1 16.1-2.7 21.5-1.2 4.1-3.8 10.6-5.8 14.5-2.6 5.2-6.2 9.6-13.6 17-6.9 6.8-12.6 11.5-18.1 14.6-4.4 2.6-12.5 6.5-18 8.7-5.5 2.2-16.1 5.7-23.5 7.6-7.4 2-18.7 4.4-25 5.5-6.3 1.1-18.5 2.6-27 3.5-8.5 0.8-25.6 2.1-38 2.7-13.3 0.7-32.1 0.9-46 0.5-12.9-0.3-30-1.1-38-1.6-8-0.6-21.5-2-30-3.1-8.5-1-20.9-3.1-27.5-4.5-6.6-1.4-17.4-4.4-24-6.5-6.6-2.2-15.6-5.7-20-7.9-4.4-2.1-10.9-5.8-14.5-8.2-3.5-2.4-9.4-7.2-13-10.8-3.6-3.6-8.2-9-10.2-12-1.9-3-4.8-8.4-6.2-12-1.5-3.6-3.3-9.8-4.1-13.7-0.8-4-1.5-11.6-1.5-26.3h97.5l0.7 5.7c0.4 3.2 1.6 6.9 2.6 8.3 1 1.4 4.1 4 6.8 5.8 2.7 1.8 8.4 4.4 12.6 5.8 4.3 1.3 12.2 3 17.5 3.8 5.4 0.8 15.9 2 23.3 2.5 7.4 0.6 26.3 1.1 42 1.1 15.7 0 34.3-0.4 41.5-1 7.2-0.6 18-1.7 24-2.6 6-0.9 14.8-2.9 19.5-4.5 4.7-1.6 10.2-4 12.2-5.4 2.1-1.4 4.7-4 5.8-5.7 1.1-1.8 2.3-4.6 2.6-6.3 0.3-1.7 0.1-4.9-0.5-7.2-0.6-2.4-2.3-5.7-3.9-7.4-1.5-1.8-5.3-4.5-8.5-6-3.1-1.6-9-3.8-13-4.8-3.9-1-10.6-2.4-14.7-3-4.1-0.6-12.7-1.6-19-2.1-6.3-0.6-32-1.5-57-2-34.7-0.7-49.8-1.4-63.5-2.9-9.9-1.2-21.8-2.8-26.5-3.7-4.7-0.8-13.9-2.9-20.5-4.6-6.6-1.6-16.5-4.8-22-7-5.5-2.3-13.5-6.1-17.9-8.7-4.3-2.5-10.7-7.1-14.2-10.1-3.5-3-8.3-8-10.6-11-2.2-3-5.3-8.2-6.9-11.5-1.5-3.3-3.5-8.9-4.4-12.5-0.9-3.6-1.9-11.7-2.2-18-0.3-6.8-0.1-14.5 0.6-19 0.7-4.1 2.3-10.7 3.7-14.5 1.3-3.8 4.3-9.9 6.7-13.4 2.3-3.5 7.4-9.3 11.2-12.9 3.8-3.5 10.6-8.5 15-11.1 4.4-2.6 11.8-6.4 16.5-8.4 4.7-2 12.3-4.7 17-6 4.7-1.4 13.9-3.6 20.5-5 6.6-1.4 18.1-3.3 25.5-4.2 7.4-1 20.9-2.3 30-3 9.1-0.7 32-1.3 51-1.4zm-1594 14.9h148.3c129.1 0 149.4 0.2 157.2 1.5 4.9 0.9 12.4 2.5 16.5 3.6 4.1 1.2 11.1 3.8 15.5 5.8 4.4 2 11.3 5.9 15.4 8.6 4.1 2.8 10.4 7.9 14.1 11.5 3.7 3.6 9.3 10.5 12.6 15.5 3.3 5 7.4 12.7 9.2 17.3 1.8 4.5 3.9 10.8 4.7 14 0.9 3.1 2 10.2 2.6 15.7 0.6 5.5 0.8 13.6 0.4 18-0.4 4.4-1.7 12.1-3 17-1.2 4.9-4.1 13.1-6.4 18-2.3 4.9-6.3 11.9-8.9 15.5-2.6 3.6-7.8 9.6-11.7 13.4-3.9 3.7-9.9 8.7-13.5 11.1-3.6 2.3-9.2 5.6-12.5 7.3-3.3 1.6-10.3 4.3-15.5 6-5.2 1.6-13.8 3.7-19 4.6-5.2 0.9-11 1.6-12.8 1.6-1.7 0-3.2 0.3-3.2 0.8 0.1 0.4 7.1 6.2 15.8 12.9 8.6 6.7 23.6 18.4 33.3 26 9.6 7.6 26.1 20.6 36.7 28.8 10.5 8.3 18.9 15.3 18.6 15.8-0.2 0.4-27.4 0.7-60.4 0.7-47.4 0-61.5-0.3-67.3-1.4-3.9-0.8-10.1-2.6-13.7-4-3.6-1.5-10.9-5.7-16.2-9.4-5.3-3.7-21.8-16.2-36.5-27.8-14.7-11.5-36-28.3-47.3-37.1-11.3-8.9-21.7-16.6-23.3-17.2-1.5-0.6-4.6-1.1-7-1.1-2.5 0-5.8 0.9-8.1 2.3-2.5 1.4-4.8 3.8-8.6 11.2v84.5h-106zm106 134c144.7-0.6 154.2-0.8 159.7-2.3 3.5-0.9 8.1-2.6 10.3-3.7 2.2-1.1 5.5-3.5 7.2-5.3 1.8-1.8 4.2-5 5.2-7.2 1-2.2 2.1-6.7 2.4-10 0.3-4.3-0.1-7.7-1.4-11.9-1.2-3.7-3.2-7.3-5.4-9.5-1.9-2-6-4.8-9-6.2-3-1.5-7.9-3.1-10.8-3.8-3.6-0.8-28.4-1.1-81.7-1.1h-76.5zm614.5-134l23.7 48.8c13 26.8 44.6 91.8 70.2 144.5 25.6 52.6 46.6 96.2 46.6 96.7 0 0.7-20 1-116.5 0.9l-21-43.8-181-0.1-21.5 44h-58.5c-32.2 0-58.5-0.3-58.5-0.7 0-0.5 6.4-14.1 14.3-30.3 7.9-16.2 28.9-59.2 46.7-95.5 17.7-36.3 41.1-84 51.9-106 14-28.5 20.8-41.2 23.6-44.3 2.2-2.4 6.2-5.8 9-7.5 2.7-1.8 7.2-4 10-4.9 4.6-1.6 11.9-1.7 161-1.8zm-118.6 125.3l-23.9 48.7c84.5 0 109-0.2 109-0.5 0-0.3-8.7-18.4-19.4-40.2-10.6-21.9-21.4-44.1-24-49.3-2.6-5.2-5.4-10.1-6.4-10.8-0.9-0.7-3-1.2-4.5-1.2-1.7 0-3.7 0.9-4.8 2.3-1.1 1.2-12.8 24.1-26 51zm282.1-125.3l158.5-0.1 40.5 83.1c22.3 45.6 40.8 82.6 41.1 82.2 0.3-0.4 16.5-33.3 36-73.2 32.4-66.3 35.9-72.9 40.9-78.3 3-3.2 7.3-6.9 9.5-8.2 2.2-1.2 6.5-3 9.5-3.9 4.8-1.4 13.8-1.6 144-1.6v291h-106l-0.2-182.5-11.8 24c-6.5 13.2-24.2 49.4-39.5 80.5-15.2 31.1-29.9 61.3-38 78.1l-33.5-0.1c-26.6 0-34.7-0.3-39.3-1.5-3.1-0.8-7.6-2.5-10-3.7-2.3-1.2-6.4-4.2-9.1-6.7-2.6-2.5-6.5-7.5-8.6-11.1-2.1-3.6-20.4-40.7-77.5-158.3l-1 180.8-105.5 0.5z"/>
</svg>