<svg xmlns="http://www.w3.org/2000/svg" width="496" height="132.12" viewBox="0 0 498 134.12"><g transform="matrix(1.3333 0 0 -1.3333 -159.8 593.6)"><g transform="matrix(.60815 0 0 .60815 120.86 154.03)"><path transform="matrix(.75 0 0 -.75 0 792)" d="m224.93 499.52 7.25 15.998-57.715 79.07 33.5-0.16015-28.312 42.66 60.781-56.703-24.285 0.10547v-0.0684h0.0234l7.6504-12.135h34.67l0.44336 12.135h28.863l-10.461-80.902zm-186.33 0.0137c-13.857 0-21.407 5.7743-25.506 19.631l-12.08 40.416c-3.6677 11.549 2.9152 20.787 14.463 20.787h55.545l6.6055-21.941h-50.811l11.068-36.951h42.725c4.951 0 9.1062-3.078 10.523-8.084 1.4173-5.0043 4.0508-13.857 4.0508-13.857zm73.529 0-24.164 80.834h25.406l8.9863-30.023h34.643l-8.9863 30.023h25.404l24.164-80.834h-25.406l-8.998 30.023h-34.645l9-30.023zm210.96 0-24.043 80.834h25.4l6.5195-21.941h18.9l14.703 21.941h30.5l-9.0469-13.332-6.7246-10.623c7.198-2.6799 12.436-8.1694 15.062-17.252l5.666-18.84c3.666-11.549-2.9152-20.787-14.463-20.787zm119.63 0c-13.858 0-21.409 5.7743-25.508 19.631l-12.082 40.416c-3.666 11.549 2.9154 20.787 14.465 20.787h62.473l13.965-46.418h-37.842l7.4453 16.395-2.4922 8.082h-32.334l11.248-36.951h43.883c4.2587 0 9.2848-3.3322 10.523-8.084 1.2351-4.7483 3.9922-13.857 3.9922-13.857zm80.484 0-24.162 80.834h75.059l6.541-21.941h-49.658l2.4394-8.082h42.393l6.207-20.787h-42.391l2.4394-8.082h41.57c6.6139 0 9.2335-3.456 10.525-8.084 1.2901-4.6263 4.0957-13.857 4.0957-13.857zm91.773 0-24.164 80.834h25.406l6.498-21.941h19.037l14.701 21.941h30.531l-15.803-23.955c7.198-2.6799 12.438-8.1694 15.062-17.252l5.668-18.84c3.666-11.549-2.9171-20.787-14.465-20.787zm119.6 0c-13.857 0-21.407 5.7743-25.506 19.631l-3.0527 10.393c-3.2433 12.769 5.291 20.787 17.387 20.787h30.428l-2.082 8.082h-54.275l-6.6934 21.941h61.203c13.857 0 21.292-5.7743 25.508-19.631l2.9746-10.393c3.6797-13.393-4.5009-20.787-19.285-20.787h-28.734l2.543-8.082h43.881c5.4801 0 9.0908-3.267 10.525-8.084 1.4327-4.8152 4.0723-13.857 4.0723-13.857zm-392.62 21.941h32.334l-4.8106 16.166h-32.332zm291.89 0h32.336l-4.8105 16.166h-32.334zm-379.57 1.1582h1.1562l1.7539 24.85h-19.646z" fill="#0080c6"/><path transform="matrix(.75 0 0 -.75 0 792)" d="m123.13 419.83c-10.721 0-16.563 4.4682-19.734 15.191l-9.8613 33.062c-2.838 8.9348 2.2551 16.086 11.193 16.086h34.936c10.723 0 16.565-4.4701 19.736-15.191l9.8613-33.062c2.838-8.9364-2.255-16.086-11.191-16.086zm183.48 0.76172 5.6152 12.396-36.582 50.281h24.184l5.9238-9.4024h26.861l0.34179 9.4024h22.359l-8.1035-62.678zm-274.26 0.13282 5.6035 12.369 0.02539-0.0117-15.002 50.193h56.293l5.3184-17.873h-36.639l13.381-44.678zm170.03 0c-10.723 0-16.563 4.4683-19.736 15.191l-2.3613 8.041c-2.5099 9.8831 4.0941 16.086 13.453 16.086h23.545l-1.6113 6.2558h-41.998l-5.1797 16.977h47.361c10.721 0 16.474-4.4683 19.736-15.191l2.3027-8.041c2.8465-10.364-3.4844-16.086-14.924-16.086h-22.234l1.9688-6.2539h33.955c4.2399 0 7.0327-2.5281 8.1426-6.2559 1.1097-3.7261 3.1523-10.723 3.1523-10.723zm179.3 0-18.695 62.551h19.658l9.832-34.762 15.635 34.762h21.445l18.693-62.551h-19.654l-9.8418 34.85-15.625-34.85zm94.602 0c-10.725 0-16.565 4.4683-19.736 15.191l-9.3496 31.275c-2.8361 8.9348 2.2568 16.084 11.193 16.084h48.342l10.805-35.92h-29.283l5.7637 12.686-1.9297 6.2559h-25.02l8.7051-28.596h33.955c3.2967 0 7.1859-2.5776 8.1445-6.2539 0.9568-3.6747 3.0879-10.723 3.0879-10.723zm62.783 0-18.697 62.551h58.08l5.0625-16.977h-38.426l1.8867-6.2558h32.805l4.8047-16.086h-32.805l1.8867-6.2539h32.168c5.1193 0 7.1428-2.6741 8.1426-6.2559 0.99987-3.5801 3.1738-10.723 3.1738-10.723zm67.494 0 5.6016 12.369 0.0254-0.0117-15.002 50.193h56.293l5.3164-17.873h-36.637l13.381-44.678zm76.643 0.0605-18.699 62.549h58.082l5.0606-16.979h-38.424l1.8867-6.2539h32.803l4.8047-16.084h-32.803l1.8867-6.2559h32.17c5.1176 0 7.1428-2.6739 8.1426-6.2539 0.99814-3.5801 3.1719-10.723 3.1719-10.723zm86.811 0c-10.723 0-16.565 4.4664-19.738 15.189l-2.3594 8.043c-2.5099 9.8813 4.0941 16.084 13.453 16.084h23.545l-1.6133 6.2539h-41.998l-5.1777 16.979h47.359c10.723 0 16.476-4.4664 19.736-15.189l2.3047-8.043c2.8465-10.362-3.4863-16.084-14.926-16.084h-22.234l1.9688-6.2559h33.955c4.2397 0 7.0348-2.5262 8.1445-6.2539 1.1097-3.7261 3.1523-10.723 3.1523-10.723zm-647.61 16.471h26.807l-8.834 29.486h-26.807zm206.94 1.2441h0.89453l1.3594 19.252h-15.219z" fill="#ffc20e"/></g></g></svg>