<svg xmlns="http://www.w3.org/2000/svg" height="68.307" viewBox="0 0 250 68.306709" width="250"><g transform="matrix(1.25 0 0 -1.25 -257.96 529.9)"><g><path d="m403.74 399.85-0.34529-1.2951-0.30097-1.1252c-0.0524-0.20164-0.36263-1.1086-1.2449-1.77-0.85125-0.63815-2.026-0.67065-2.2538-0.67065l-12.951-0.007c-2.5337 0-2.4891-2.3387-2.4891-2.3387l10.872-0.20794c3.7897-0.0835 5.8223-2.3469 5.6643-4.7768-0.0214-0.32721-0.12262-1.1541-0.35711-1.9839-0.50485-1.9595-2.215-5.2278-8.0075-5.2278l-16.751 0.001 0.58497 2.2612c0.0498 0.19534 0.21085 1.3416 1.0691 1.9839 0.80911 0.60637 1.8768 0.65474 2.1877 0.65474l13.166 0.006c0.7733 0 1.3417 0.14921 1.7593 0.37262 0.50631 0.27144 0.79028 0.65293 0.94909 1.0115 0.23599 0.53141 0.19758 1.013 0.19758 1.013l-11.601 0.23893c-3.3857 0.0905-5.4024 1.8487-5.1391 4.6904 0.031 0.33422 0.0886 1.0144 0.37668 2.1024l0.002 0.008 0.003 0.0111c0.88449 3.1158 3.8957 5.0534 7.8572 5.0534h0.002l15.434-0.003 1.3154-0.002zm-29.519-6.6145c-0.0502-0.54323-0.11966-1.2877-0.35749-2.1814l-2.8528-10.542h-5.388l3.0338 11.146c0.15956 0.61338 0.21495 0.88076 0.23968 1.0462 0.00098 0.009 0.003 0.0192 0.004 0.0277 0.005 0.0399 0.009 0.0746 0.0122 0.10638 0.0232 0.25037 0.008 0.46752-0.0321 0.66214-0.006 0.0255-0.01 0.0524-0.0159 0.0772-0.26477 1.0543-1.4007 1.3021-2.4026 1.3021l-9.8746-0.00064-3.1431-11.706c-0.12113-0.36412-0.50482-1.3494-1.2896-1.937-0.97754-0.73269-2.6091-0.72272-2.6091-0.72272h-2.2006l5.1997 19.341h5.3382l-0.61082-2.3144c1.3789 1.7715 2.8188 2.208 3.543 2.3144h6.4719c4.5837 0 7.3073-2.5976 6.9343-6.6189zm-31.305-10.43-0.0137-0.0488-0.0188-0.0502c-0.17651-0.48155-0.51848-1.1562-1.1592-1.636-0.85086-0.63776-2.0252-0.67175-2.2531-0.67175h-2.5844l5.1591 19.339h5.4206l-4.5505-16.932zm1.2449 19.861h-1.3199l0.35045 1.2992 0.39811 1.4894c0.055 0.19758 0.36152 1.2305 1.2372 1.8853 0.77109 0.57832 1.7859 0.65809 2.1848 0.664l0.0107 0.002h2.5958l-0.33237-1.2881-0.81281-3.1283-0.24114-0.92361h-4.0708zm-9.0795-9.3314-0.0144-0.16768c-0.0388-0.44869-0.0894-1.0621-0.39811-2.252l-2.8506-10.511h-5.3851l3.0404 11.215c0.13259 0.53101 0.19537 0.81501 0.23858 1.1278 0.00065 0.006 0.002 0.0115 0.003 0.0177 0.0173 0.13038 0.0325 0.26702 0.0476 0.42986 0.0122 0.13444 0.006 0.25592-0.007 0.37078-0.002 0.0211-0.003 0.0439-0.006 0.0643-0.16619 1.0395-1.3612 1.2759-2.4019 1.2759l-10.119-0.0126-3.1165-11.69s-0.3549-1.3479-1.3332-2.0799c-0.78327-0.58682-1.9861-0.69613-2.4314-0.7183h-2.461l6.784 25.494c0.15362 0.42762 0.53436 1.2881 1.2475 1.8221 0.77184 0.57871 1.9529 0.69393 2.4123 0.71756h2.3868l-0.33202-1.2866-2.4891-9.7195c0.47898 0.61449 0.96497 1.0684 1.4259 1.404 0.0694 0.0502 0.13849 0.0986 0.20644 0.14366 0.37077 0.24633 0.72048 0.41583 1.0329 0.534 0.13038 0.0495 0.25521 0.0909 0.37078 0.12372 0.59715 0.1695 0.98529 0.14106 0.98529 0.14106l6.2145 0.002c5.5705 0 7.2249-3.4755 6.9494-6.4457zm-36.091-7.9569s-6.1909-0.003-8.6696-0.003c-0.47011 0-0.90958 0.0802-1.2977 0.23157-0.24004 0.093-0.4594 0.21345-0.65474 0.35821-0.76222 0.5665-1.1434 1.5089-0.83832 2.6896l1.6485 6.1739 8.6944 0.00065c2.5024 0 2.9872-0.67656 3.0474-1.3221 0.002-0.0192 0.002-0.0384 0.003-0.0576 0.009-0.16099-0.004-0.31871-0.017-0.46272-0.007-0.0702-0.0266-0.18501-0.0558-0.33052-0.002-0.008-0.003-0.0166-0.005-0.0247-0.32792-1.6286-1.855-7.2537-1.855-7.2537zm0.53731 14.426-5.8847-0.0137c-0.59195-0.0418-2.2298-0.33938-3.7886-2.341l0.61597 2.3325-5.2521-0.0122-7.4509-27.685h2.3469c0.3811 0.0118 1.6692 0.10155 2.4942 0.72087 0.7648 0.57277 1.1474 1.5193 1.2785 1.9059l2.194 8.2903c0.0314-0.82611 0.44499-2.3421 2.745-2.6323 0.20494-0.0255 8.2316-0.006 8.2316-0.006l0.003 0.006h2.0869s1.5902-0.0835 2.8676 0.9576c1.4155 1.1548 1.9392 2.9972 1.9392 2.9972l0.47196 1.6467s1.7863 7.0381 1.8328 7.5466c0.36561 3.9385-2.1504 6.2869-6.7315 6.2869zm-17.535 6.901-6.3482-23.815-0.004-0.0196-0.007-0.0222c-0.10859-0.34675-0.44022-1.2187-1.208-1.7936-0.63299-0.47603-1.4299-0.61968-1.9868-0.65662l-0.0373-0.002h-2.8107l0.34973 1.2981 6.3356 23.758c0.0528 0.19904 0.35932 1.2275 1.2346 1.8853 0.82391 0.61782 1.9167 0.6662 2.2324 0.6662h2.5987l-0.34861-1.2984zm-20.59-18.16c-0.6038-2.2387-1.9746-3.194-4.5844-3.194h-9.379l1.6891 6.2651c0.5318 1.9739 1.4898 3.1963 4.6173 3.1963l9.2343-0.0126c-0.0196-0.079-1.52-6.0421-1.5773-6.2548zm6.9638 10.316c-0.54105 0.79842-1.6294 0.93468-2.1065 0.95354l-11.95 0.005c-5.49 0-9.1087-2.6593-10.462-7.6895l-2.0396-7.9561c-0.0964-0.4668-0.3187-1.8886 0.32682-2.8414 0.51293-0.75632 1.5156-0.91806 2.0267-0.94909l12.062-0.006c5.5793 0 9.0873 2.5792 10.427 7.6629l1.5821 6.1772h-0.004l0.18576 0.71385 0.28436 1.109c0.0982 0.4893 0.30208 1.8816-0.33273 2.8203zm-33.645-0.96276c-0.0643-0.69945-0.38333-2.0562-1.2198-5.1886-1.6707-6.2289-2.4979-6.9428-8.0518-6.9428h-11.559l4.1158 15.302h11.483c3.7395 0 4.9024-0.54621 5.1945-1.6039 0.007-0.0255 0.0122-0.0524 0.0181-0.0787 0.0495-0.2142 0.065-0.74265 0.0646-0.76333-0.004-0.22677-0.0211-0.46681-0.0451-0.72457zm-4.0741 8.509h-16.613l-0.24595-0.91436-6.7282-25.065h17.198c9.0972 0 11.941 2.31 14.489 11.77 0.98971 3.6161 1.2604 5.1166 1.3756 6.3637 0.33202 3.5788-1.0425 7.8457-9.4758 7.8457" fill="#008e97"/><path d="m242.18 411.86 2.8853 11.16h-1.8062c-1.1515-0.0587-1.5426-0.72382-1.6556-1.0045l-2.8812-11.146h1.9048c0.0465 0 1.0325 0.01 1.5529 0.99006m52.241 0.0196 2.8798 11.141h-1.7955c-1.4594-0.0746-1.6976-1.1278-1.6976-1.1278l-0.24485-0.95055h-0.00033l-2.6043-10.072h1.7567c1.1947 0.0414 1.5913 0.72603 1.7062 1.0096m-11.095 11.141-6.3467-9.3705-1.5012 9.3705h-3.3787c-1.4598-0.0746-1.6973-1.1286-1.6973-1.1286l-2.868-11.022h3.2014l2.3461 9.0736h0.0779l1.52-9.0736h3.1615l6.1927 9.0736h0.0975l-2.3465-9.0736h3.2018l3.1416 12.15h-4.8023zm-20.255-12.15h-3.4164l-0.72048 2.9514h-6.2474l-1.3354-1.7538-0.0473-0.062s-0.84384-1.1326-2.2978-1.1326h-0.72123v-0.003h-1.2612l8.7416 11.129c0.24449 0.27293 0.98159 0.97422 2.0947 1.0207h1.9491l3.2616-12.15zm-4.601 4.857-1.0484 4.3259-3.286-4.3259h4.3344zm-27.381 7.2932-6.346-9.3705-1.5016 9.3705h-3.4016c-1.2117-0.0617-1.5817-0.79622-1.6707-1.0451l-2.8709-11.105h3.2014l2.3454 9.0736h0.0783l1.5196-9.0736h3.1626l6.1916 9.0736h0.0971l-2.3454-9.0736h3.2014l3.1412 12.15h-4.8027zm164.21-36.287-11.039 0.15437c-1.6873 0.0454-3.1095 0.39886-4.0039 1.2334 1.0783-1.4255 3.0633-2.2778 4.8001-2.2863l9.2937-0.11301c0.50631 0.27144 0.79028 0.65292 0.94909 1.0115zm9.3247 12.316-0.52514-1.999c-0.32166-0.83719-1.1858-3.0341-4.6081-3.118l-11.983-0.007c-1.8583 0-1.7674-1.3151-1.7674-1.3151l1.5662-0.0303s-0.28065 0.3826 0.99747 0.3826l10.885-0.0827c4.5948-0.0554 5.7784 3.3133 5.9313 3.8983l0.3549 1.325-0.8505 0.94652zm-3.3148-9.5367s0.82132-1.2516 0.005-4.303c-0.43061-1.6072-2.2317-5.8194-8.8399-5.8194l-15.937 0.00065 0.94283-1.0525 14.962-0.002c6.7578 0 9.7047 4.3577 9.854 7.4107 0.11852 2.424-0.9864 3.765-0.9864 3.765zm-32.389 3.3226c0.0232 0.25037 0.008 0.46752-0.0321 0.66214-0.46752 0.24927-1.0654 0.32682-1.6223 0.32682l-9.8742-0.00065-2.9112-10.889c-0.68243-2.28-2.293-3.4814-5.1679-3.4773h-1.0185l0.95351-1.0528h0.48118c3.074 0 5.2503 1.9879 5.8006 4.3699l2.6578 9.9957 9.875 0.00065c0.27699 0 0.56501-0.0196 0.84199-0.0698 0.00098 0.009 0.003 0.0192 0.004 0.0277 0.005 0.0399 0.009 0.0746 0.0122 0.10638zm5.9442 3.0445c0.7733-2.0555 0.0414-4.9885-0.19609-5.8822l-2.8536-10.542h-5.2337l0.94357-1.0528h5.086l2.8532 10.542c0.89296 3.1734 0.0794 5.7433-0.59935 6.935zm-26.557 2.9292-4.3355-16.135c-0.15661-0.57536-0.98383-3.3296-4.5353-3.3307h-1.5828l0.92991-1.0536h0.8143c2.8266 0 4.8197 2.0016 5.333 3.8717l4.2081 15.725-0.83163 0.92325zm2.1508 8.2697-1.4222-5.4685h-5.248l0.95055-1.0532h5.0937l1.4536 5.6033-0.82762 0.91845zm-20.688-13.887c0.0122 0.13444 0.006 0.25592-0.007 0.37078-0.46235 0.21861-1.058 0.28695-1.6113 0.28695l-10.119-0.0122-2.8846-10.865c-0.79693-2.8063-2.8388-3.6235-5.0553-3.6235h-1.2486l0.94244-1.0529c3.8632-0.14992 5.764 2.1567 6.3286 4.2155l2.7136 10.273 10.119 0.0122c0.25407 0 0.51739-0.0155 0.77184-0.0521 0.00065 0.006 0.002 0.0115 0.003 0.0177 0.0173 0.13038 0.0325 0.26702 0.0476 0.42986zm-9.2014 6.3194 1.811 7.0698-0.82794 0.91991-2.2224-8.6674c0.0694 0.0502 0.13849 0.0986 0.20644 0.14366 0.37078 0.24633 0.72048 0.41583 1.0329 0.534zm14.735-2.8587c0.90442-1.7183 0.73713-3.2746 0.62743-4.4519 0 0-0.14992-1.1515-0.45865-2.3417l-2.8506-10.511h-5.234l0.9476-1.0529h5.083l2.8502 10.511c0.92695 3.1656 0.3645 6.017-0.96497 7.8464zm-34.39-3.6686c0.0129 0.14401 0.0262 0.30172 0.017 0.46271-0.4557 0.19833-1.1629 0.32721-2.2542 0.32721l-8.694-0.00065-1.6485-6.1746c-0.15953-0.61744-0.12999-1.1688 0.0421-1.6363 0.19534-0.14476 0.4147-0.26517 0.65474-0.35821-0.0166 0.29283 0.013 0.60711 0.0994 0.94169l1.6485 6.1742 8.694 0.00065c0.55319 0 1.0071-0.0336 1.3804-0.0919 0.002 0.008 0.003 0.017 0.005 0.0247 0.0292 0.14551 0.0491 0.26036 0.0558 0.33052zm5.7429 3.9094c0.82132-1.7874 0.59641-3.6361 0.40659-4.4327l-1.7468-7.092c-0.67025-3.0589-2.4023-6.0557-6.254-6.0557 0 0-9.2276-0.0259-9.4326 0-1.4583-0.0225-2.2423 0.46973-2.2423 0.46973s1.0263-1.523 3.0386-1.523h8.1146c6.8859-0.21679 7.6459 6.3109 8.2346 8.564l1.0846 4.5841c0.30134 1.4698 0.0931 3.8012-1.2032 5.4856zm-20.042-15.97-1.6925-6.4276c-0.68285-2.4252-2.6017-3.4677-4.85-3.4677h-1.3439l0.93692-1.0532h0.61082c2.7823 0 5.0826 1.7833 5.7078 4.4603l1.4041 5.3474c-0.52033 0.5639-0.77333 1.1408-0.77333 1.1408zm-3.4271 26.159-6.5801-24.653c-0.40291-1.6652-2.2106-3.0873-4.1527-3.0873l-1.8753-0.003 0.90182-1.0436 0.95981-0.007c2.5651 0 4.5239 1.8074 5.1325 3.6132l6.4365 24.268-0.82242 0.91329zm-28.734-13.316c-3.7698-0.0166-3.8244-0.60306-4.6173-3.1963l-1.4052-5.2118h1.0839l1.4573 5.3374c0.43833 1.5747 0.49336 2.0012 2.7797 2.0012l8.7135 0.005c0.0964 0.38259 0.18687 0.74265 0.26517 1.0536l-8.2771 0.0111zm15.934 2.7369c-0.20018 0.96276-0.79807 1.6918-0.79807 1.6918 0.43801-1.1954 0.00065-2.7993-0.0798-3.2003l-2.0485-8.0004c-1.3313-5.0114-6.1673-7.6626-10.427-7.6626l-12.062 0.006c-0.36708 0.0221-1.7892 0.0835-2.3 0.41249 0 0 0.30614-0.41655 1.0625-0.87855 0.88962-0.54322 2.0337-0.58718 2.0337-0.58718l10.814-0.006c5.9656 0 10.38 3.3787 11.802 8.113l1.9211 7.5499s0.38555 1.0979 0.0816 2.5615zm-35.671 2.8901c-0.74155 0.41658-2.0714 0.62929-4.4046 0.62929h-11.483l-3.8326-14.249h1.0854l3.5493 13.196h11.477c1.7091 0 2.8776-0.11483 3.673-0.33974 0.00036 0.0207 0.002 0.0429 0.003 0.0631 0.002 0.25335-0.0177 0.48599-0.0672 0.70019zm7.0137-2.9308c-0.11522-1.2471-0.41174-2.7409-1.3756-6.3637-2.5171-9.4614-8.1899-11.77-14.489-11.77h-16.895l-0.93912 1.0532h17.037c7.6747 0 11.987 2.3085 14.489 11.77 0.95835 3.6246 1.2604 5.1166 1.3756 6.3637 0.1348 1.4506 0.33864 3.2971-0.44502 4.6439 1.1445-1.7597 1.4126-3.8481 1.2412-5.6972" fill="#fc4c02"/></g></g></svg>