<?xml version="1.0" encoding="UTF-8" standalone="no"?>
<svg xmlns:rdf="http://www.w3.org/1999/02/22-rdf-syntax-ns#" xmlns="http://www.w3.org/2000/svg" xml:space="preserve" height="73.6" viewBox="0 0 191.09371 73.599946" width="191.09" version="1.1" xmlns:cc="http://creativecommons.org/ns#" xmlns:dc="http://purl.org/dc/elements/1.1/"><g transform="matrix(1.25 0 0 -1.25 -286.64 527.05)"><g style="" transform="matrix(.25 0 0 .25 229.31 294.15)" fill="#0b2265"><path d="m8.853 311.21h568.55l-7.7464-36.77h-569.65l8.853 36.77"/><path d="m257.89 405h-21.747l23.776 67.999h5.6002l-7.6291-67.999zm330.39 102.57h-188.34l-18.83-93.2-18.385 93.2h-36.1l-33.727-164.61 9.0459 164.61h-67.706l-58.962-162.7 38.623 162.7h-42.144l-19.282-83.425h-64.57l-8.0734-32.461h12.114s-1.0479-4.2589-2.2971-9.4315c-1.5761-6.5308-3.4876-14.52-3.9822-17.027-0.0503-0.2431-0.13413-0.4443-0.19282-0.6706-0.97249-3.4876-3.4456-4.5188-5.793-4.6781-0.25151-0.0251-0.50301-0.0335-0.74614-0.0335-2.6827 0-7.4111-0.2347-10.764 0.1928-2.5989 0.3186-4.8708 2.6073-4.7954 5.9607 0.02515 0.654 0.09222 1.3498 0.31858 2.0959 0.33534 1.1318 1.9366 7.847 4.1582 17.27 0.04192 0.2682 0.09222 0.5114 0.17606 0.7545 5.0301 21.42 13.087 56.162 17.077 72.82 1.2659 5.29 2.1378 8.7776 2.3558 9.4315 1.442 4.2086 2.2468 7.4027 7.1679 8.283 0.87189 0.1676 1.7857 0.2682 2.6911 0.3437 2.2049 0.1844 4.3678 0.1174 6.12-0.1174 0.5281-0.0587 1.0731-0.1174 1.5006-0.2263 4.3511-0.9809 5.835-3.3535 5.3907-6.053-0.3438-2.012-1.945-9.0458-3.3199-14.948-1.1066-4.7702-2.0708-8.8111-2.0708-8.8111h40.358s5.5918 22.015 8.0734 33.182c2.6911 12.106-8.1069 25.796-20.179 27.8-16.138 2.6912-48.801 2.8421-58.752 0.4528-11.205-2.72-21.064-11.67-25.105-27.82-3.294-13.2-23.122-96.1-27.8-115.24-4.9379-20.162 1.7689-34.02 17.044-37.072 13.447-2.6911 37.726-2.4228 54.258-0.4443 15.769 1.8947 25.335 13.145 28.697 24.061 3.5798 11.662 10.303 39.478 10.303 39.478h13.011l-14.805-63.095h79.971l15.476 44.173h28.588l-5.2733-44.173h78.269l19.282 96.067 18.167-96.067h37.198l30.055 144.84h16.591l-29.812-144.84h41.021l29.938 144.84h16.474l-4.9212-24.765c-6.4972-27.758 10.53-33.19 10.53-33.19 11.653-6.053 30.483-12.114 30.483-12.114 13.464-4.2588 10.773-14.906 10.773-14.906l-0.7545-3.7558-3.06-15.409c-1.7941-6.9499-7.8387-7.1847-7.8387-7.1847-6.8745-1.0647-13.908 0.4443-13.908 0.4443-3.5798 0.7881-4.3511 4.1415-4.3846 6.8159-0.0168 1.9282 0.3437 3.5127 0.3437 3.5127l4.5858 21.621 0.3521 1.7019h-39.461l-6.5056-30.508c-6.053-26.442 8.526-35.303 24.446-37.106 15.468-2.23 39.336-1.1904 39.336-1.1904 21.177 0.1257 37.558 14.763 41.138 32.017l8.2998 35.437c2.9258 14.118 1.8024 29.368-13.9 34.96l-33.626 13.02c-4.0242 1.5258-5.508 4.1415-4.1499 10.194l0.7294 3.9906v0.0168l2.4899 14.11c0.5449 3.06 3.5043 5.5332 6.5895 5.5499h6.5978l5.1978 0.0168c3.0936 0.0168 5.1392-2.4564 4.5942-5.4996l-0.5198-2.666-0.4443-2.2468-3.7307-19.098h39.487l5.4912 28.588c7.6123 31.606-21.973 32.218-21.973 32.218"/></g></g></svg>