<svg xmlns="http://www.w3.org/2000/svg" height="42.415" width="252" viewBox="0 0 252 42.415">
 <g transform="matrix(1.3333 0 0 -1.3333 -75.677 52.649)">
  <path d="m184.74 38.548s2.7557-1.5149 1.873-5.0635l-1.4464-7.2156h7.5146c-2.1328-0.96735-8.2782-4.734-9.5153-9.9582l-1.6214-8.0733h27.321l1.2159 5.9916h-17.889l1.2377 6.1735h11.167c0.83841 0.5631 3.6726 3.8756 4.1447 5.9561l-14.114-6.22e-4 1.252 6.2345h15.281c0.83841 0.5631 3.6726 3.875 4.1447 5.9561zm-124 0s2.7557-1.5149 1.8737-5.0635l-1.447-7.2156h7.5152c-2.1334-0.96735-8.2782-4.734-9.5153-9.9582l-1.6214-8.0733h27.321l1.2153 5.9916h-17.889l1.2383 6.1735h11.167c0.83779 0.5631 3.6726 3.8756 4.1447 5.9561l-14.114-6.22e-4 1.252 6.2345h15.281c0.83841 0.5631 3.6726 3.875 4.1447 5.9561zm44.698-5.9561-3.9691-10.159 9.1017 6.23e-4 0.12271 10.159zm14.293 5.9555-0.35193-30.309h-8.979l0.0953 8.2303h-11.347l-3.2266-8.2303h-9.2481l12.193 30.309zm120.22-12.189h-15.464l1.2601 6.2339h15.153c0.83841 0.5631 3.6726 3.875 4.1447 5.9555h-25.763c-1.0508 0-1.9528-0.74685-2.149-1.7784l-2.803-13.961c-0.23857-1.2533 0.72255-2.4056 1.9976-2.4056h15.658l-1.2414-6.1729h-18.137l-1.2047-5.991 25.812 0.00997c1.0514 0.00436 1.9422 0.7456 2.1484 1.7765l2.737 13.73c0.25788 1.3486-0.7755 2.6024-2.1484 2.6024zm-100.53-5.9555h3.8364l-1.2383-6.1729h-10.174l3.6906 18.362h16.76c0.83841 0.5631 3.68 3.8756 4.1522 5.9561h-27.503c-0.95551 0-1.779-0.67459-1.9677-1.6114l-5.778-28.698h27.511c0.9605 0 1.7864 0.68082 1.9702 1.6233l3.3026 16.496h-13.36zm24.331-6.1729h16.451l-1.2034-5.991h-25.927l6.1037 30.309h9.4742l-4.8978-24.318" fill="#004851"/>
 </g>
</svg>