<?xml version="1.0" encoding="windows-1252"?>
<!-- Generator: Adobe Illustrator 14.0.0, SVG Export Plug-In . SVG Version: 6.00 Build 43363)  -->
<!DOCTYPE svg PUBLIC "-//W3C//DTD SVG 1.1//EN" "http://www.w3.org/Graphics/SVG/1.1/DTD/svg11.dtd">
<svg version="1.1" id="Layer_1" xmlns="http://www.w3.org/2000/svg" xmlns:xlink="http://www.w3.org/1999/xlink" x="0px" y="0px" width="250px" height="76px" viewBox="0 0 250 76" style="enable-background:new 0 0 250 76;" xml:space="preserve">
<g>
	<path d="M230.674,23.749c9.396,0.4,14.755,5.978,14.299,16.313l-11.586,0.009c0.005-2.358,0.145-5.057-2.703-5.608L230.674,23.749z   "/>
	<path d="M230.684,57.361c1.136-0.331,2.176-1.06,2.176-2.373c0-1.309-0.839-2.109-2.171-2.512l-0.02-12.133   c5.92,1.506,14.06,4.516,14.06,15.661c0,11.85-8.647,14.543-14.055,14.889L230.684,57.361z"/>
	<path d="M228.134,70.912c-9.386-0.412-15.297-5.474-14.784-17.112h11.241c-0.115,2.281,1.419,3.432,3.538,3.71L228.134,70.912z"/>
	<path d="M228.138,51.92c-5.383-1.116-8.666-1.884-11.868-6.217c-1.966-2.675-2.354-5.45-2.354-8.758   c0-8.887,6.797-12.746,14.222-13.177l-0.009,10.769c-1.472,0.393-2.009,1.412-2.009,2.332c0,0.93,0.753,2.1,2.009,2.626   L228.138,51.92z"/>
	<path d="M43.425,35.728V24.753h5.09V20.94l13.216-7.133v10.946h6.136v10.975h-6.279v18.331c0.019,2.525,1.069,4.218,3.528,4.132   c1.769-0.063,2.771-0.666,2.986-1.007V70.73c-1.476,0.412-2.454,0.45-5.277,0.45c-6.946,0-14.309-4.496-14.309-11.36V35.728H43.425   z"/>
	<rect x="137.339" y="4.855" width="13.686" height="66.039"/>
	<path d="M201.309,23.389v5.832h0.163c2.373-3.564,6.846-6.375,10.867-6.375v16.411c-1.007-0.709-2.862-1.256-4.156-1.256   c-2.896,0-7.224,1.63-7.018,5.091v27.803h-13.302V23.389H201.309z"/>
	<path d="M25.392,4.819c12.108,0.434,17.127,9.98,16.705,20.214H29.461c-0.144-3.327-0.637-6.215-4.074-6.792L25.392,4.819z"/>
	<path d="M25.392,56.244c1.764-0.35,3.317-1.668,3.317-3.921c0-1.765-1.38-3.197-3.313-4.487l-0.004-19.018   c5.584,1.906,8.882,3.991,11.888,7.874c2.828,3.657,4.521,7.675,4.521,15.387c0,10.623-5.771,18.45-16.408,18.921V56.244z"/>
	<path d="M22.855,71.027C11.303,70.419,5.513,62.854,5.513,55.046v-7.344h13.911v3.552c0,2.627,1.031,4.42,3.423,4.933   L22.855,71.027z"/>
	<path d="M22.86,46.326c-0.848-0.46-1.74-0.925-2.603-1.376c-4.707-2.497-8.522-5.071-11.135-8.24C6.539,33.487,5,28.837,5,23.241   C5,12.635,12.947,5.591,22.855,4.87L22.851,18.25c-2.306,0.489-3.782,2.44-3.773,4.873c0.005,2.078,1.51,4.084,3.773,4.88   L22.86,46.326z"/>
	<path d="M86.892,70.889c13.811-0.763,13.714-11.726,13.719-16.696H89.826c-0.105,1.721-0.848,2.876-2.929,3.27L86.892,70.889z"/>
	<path d="M86.892,35.301c2.33,0.456,3.341,2.401,3.341,3.384v0.915l-3.355,0.02l0.014,10.388h13.733V36.433   c0-9.441-7.842-12.046-13.733-12.308v11.181"/>
	<path d="M84.375,35.383c-1.673,0.235-3.024,1.361-3.024,3.346v0.829l2.996,0.024l0.005,10.426h-3.188v4.06   c-0.005,2.397,0.8,3.375,3.207,3.528l-0.02,13.326c-7.952-0.273-13.676-3.959-13.676-13.661V38.853   c0-11.483,5.292-14.418,13.676-14.723v11.277"/>
	<path d="M120.308,70.889c13.82-0.763,13.723-11.726,13.723-16.696h-10.78c-0.11,1.721-0.848,2.876-2.929,3.27L120.308,70.889z"/>
	<path d="M120.313,35.301c2.334,0.456,3.346,2.401,3.346,3.384v0.915l-3.36,0.02l0.01,10.388h13.738V36.433   c0-9.441-7.842-12.046-13.733-12.308l-0.004,11.181"/>
	<path d="M117.796,35.383c-1.62,0.144-3.024,1.361-3.024,3.346v0.829l3,0.024l0.005,10.426h-3.192v4.06   c0,2.397,0.8,3.375,3.207,3.528l-0.015,13.326c-7.957-0.273-13.681-3.959-13.681-13.661V38.853   c0-11.483,5.297-14.418,13.681-14.723v11.277"/>
	<path d="M170.817,70.889c13.819-0.763,13.724-11.726,13.729-16.696h-10.785c-0.11,1.721-0.849,2.876-2.929,3.27L170.817,70.889z"/>
	<path d="M170.817,35.301c2.339,0.456,3.351,2.401,3.351,3.384v0.915l-3.36,0.02l0.01,10.388h13.738V36.433   c0-9.441-7.843-12.046-13.738-12.308v11.181"/>
	<path d="M168.306,35.383c-1.62,0.144-3.025,1.361-3.025,3.346v0.829l3.001,0.024l0.005,10.426h-3.192v4.06   c0,2.397,0.801,3.375,3.207,3.528l-0.015,13.326c-7.952-0.273-13.681-3.959-13.681-13.661V38.853   c0-11.483,5.297-14.418,13.681-14.723v11.277"/>
</g>
</svg>