<svg xmlns="http://www.w3.org/2000/svg" height="91.796" viewBox="0 0 250 91.796448" width="250"><g transform="matrix(1.25 0 0 -1.25 -258.07 541.77)"><g><path d="m0.85156 1.1191v22.932l15.242-11.281 0.295-0.221 0.361 0.064c0.873 0.144 4.434 0.642 5.203 0.766l0.733 0.119 8.091-4.4062-22.783-3.748-7.1424-4.2247zm248.03 2.7129l-10.06 4.3633s-9.62 1.5139-15.39 2.5407c-5.77 1.031-6.78 4.293-6.78 7.645v14.59c0 3.228 1.36 5.165 2.31 6.131l14.32 6.736c3.15 1.482 5.53 2.564 6.96 3.324 2.27 1.207 2.52 1.611 2.52 1.611v28.151c-0.05 2.773-1.26 6.003-5.87 5.387-0.32-0.046-3.21-0.421-3.22-0.418-7.25-0.994-9.82-1.764-17.17-2.618l8.61-2.705-0.21-0.213-14.59-14.523v4.879l0.01 15.484c7.18 0.871 12.79 1.619 19.23 2.715l7.49 1.258c3.96 0.639 6.41 0.776 8.81-0.234 1.97-0.831 2.98-2.766 3.02-5.741v-22.951l0.01-1.176c0.03-5.925 0.04-8.902-6.97-12.357-7.87-3.879-16.68-8.056-16.77-8.1l-0.5-0.232v-17.498c0-3.398 0.99-4.595 4.23-5.117l4.78-0.694 0.31-0.045 0.26 0.155 14.66 8.609v-18.957zm-218.1 5.2598v71.445l-17.367 10.379c10.19-2.213 22.443-4.108 34.443-5.832l-8.769-5.76-0.389-0.258v-63.244l4.748 0.785 11.362 9.223 0.004-7.225v-8.13l-4.397 1.847-19.635-3.2302zm33.166 3.2342v2.588c0.979 0.108 1.957 0.213 2.936 0.316v7.045c1.07 0.113 2.14 0.223 3.211 0.33v-7.044c0.924 0.092 1.848 0.183 2.773 0.271v-2.586c-2.975-0.284-5.948-0.592-8.92-0.92zm134.86 0c-2.68 0.296-5.36 0.574-8.04 0.834v9.633c2.66-0.259 5.32-0.535 7.97-0.828v-2.377c-1.65 0.182-3.31 0.358-4.96 0.527v-1.615c1.67-0.17 3.34-0.347 5.01-0.531v-1.76c-1.66 0.183-3.32 0.36-4.99 0.529v-1.543c1.67-0.17 3.34-0.348 5.01-0.533v-2.336zm-15.14 1.483c-2.68 0.229-5.37 0.44-8.06 0.634v9.631c2.67-0.192 5.33-0.402 7.99-0.629v-2.377c-1.66 0.142-3.32 0.276-4.97 0.405v-1.616c1.67-0.128 3.34-0.265 5.01-0.408v-1.758c-1.66 0.142-3.32 0.278-4.99 0.407v-1.545c1.68-0.13 3.35-0.266 5.02-0.408v-2.336zm-103.94 0.054v9.631c2.661 0.224 5.324 0.432 7.988 0.621v-2.377c-1.66-0.118-3.32-0.243-4.979-0.375v-1.615c1.673 0.133 3.347 0.258 5.02 0.377v-1.758c-1.664-0.118-3.329-0.243-4.992-0.375v-1.545c1.672 0.133 3.346 0.259 5.019 0.377v-2.336c-2.686-0.191-5.372-0.398-8.056-0.625zm88.179 1.088c-1.88 0.112-3.76 0.216-5.64 0.311-0.96 0.048-1.63 0.176-2.03 0.386-0.56 0.301-0.84 0.84-0.84 1.618v2.304c0 0.825 0.27 1.335 0.8 1.53 0.31 0.113 1 0.145 2.07 0.091 1.11-0.056 2.22-0.116 3.33-0.177v1.24c-2.09 0.116-4.18 0.221-6.27 0.316v2.463c2.35-0.107 4.7-0.227 7.05-0.361 0.65-0.037 1.16-0.219 1.54-0.545 0.39-0.326 0.58-0.768 0.58-1.328v-2.34c0-1.266-0.72-1.854-2.16-1.771-1.32 0.075-2.65 0.148-3.98 0.214v-1.224c1.85-0.094 3.7-0.195 5.55-0.305v-2.422zm-73.011 0.002v9.631c0.963 0.057 1.927 0.114 2.89 0.166 0 0 0.044-5.788-0.002-6.047 0.092 0.237 3.623 6.238 3.623 6.235 0.96 0.046 1.92 0.09 2.88 0.132v-9.631c-0.95-0.042-1.9-0.086-2.85-0.132 0 1.584-0.01 3.168-0.01 4.752-0.95-1.631-1.895-3.262-2.842-4.897-1.23-0.066-2.46-0.136-3.689-0.209zm56.831 0.746c-1.88 0.063-3.76 0.117-5.64 0.162-0.96 0.023-1.63 0.134-2.03 0.334-0.56 0.286-0.84 0.818-0.84 1.596v2.305c0 0.823 0.27 1.341 0.8 1.549 0.31 0.121 1 0.172 2.07 0.146 1.11-0.026 2.22-0.055 3.33-0.088v1.238c-2.09 0.062-4.18 0.113-6.27 0.153v2.463c2.35-0.045 4.7-0.104 7.05-0.176 0.65-0.02 1.16-0.188 1.55-0.504 0.38-0.315 0.58-0.753 0.58-1.313v-2.339c0-1.267-0.73-1.873-2.17-1.829-1.32 0.041-2.65 0.077-3.98 0.11v-1.225c1.85-0.045 3.7-0.099 5.55-0.16v-2.422zm-40.25 0.016v9.631c0.96 0.031 1.92 0.061 2.89 0.088 0 0 0.04-5.789 0-6.047 0.09 0.235 3.62 6.138 3.62 6.134 0.96 0.021 1.92 0.041 2.88 0.057v-9.631c-0.95-0.016-1.9-0.034-2.85-0.054 0 1.584-0.01 3.167-0.01 4.752-0.95-1.605-1.89-3.212-2.84-4.821-1.23-0.032-2.46-0.069-3.69-0.109zm24.66 0.305c-2.69 0.02-5.39 0.023-8.08 0.009v9.631c2.67 0.015 5.34 0.01 8.01-0.01v-2.377c-1.66 0.013-3.33 0.019-4.99 0.018v-1.615c1.68 0.001 3.35-0.005 5.03-0.018v-1.758c-1.67 0.013-3.33 0.019-5 0.018v-1.545c1.68 0 3.35-0.004 5.03-0.018v-2.335zm-85.105 12.849l5.975 6.199 6.297-2.705-12.272-3.494zm12.272 3.494v45.76l-13.139 6.67c0.236-0.028 1.541-0.197 1.541-0.197 7.084-0.892 15.014-1.802 21.883-2.453l1.736-0.168-6.013-4.493-0.207-0.158v-41.244l0.209-0.156 5.994-4.399-12.004 0.838zm142.74-2.883l-11.24 3.299v44.612l-4.17 4.761 15.45 1.629-5.49-6.357-0.13-0.147v-41.558l0.14-0.149 5.44-6.09zm-11.24 47.911l-4.88-19.698-0.97-1.853-12.4-23.479-4.48 1.877 22.73 43.153zm-22.73-43.153v42.401l-11.55 3.453 16.86 0.935v-24.396l-5.31-22.393zl-11.5-0.916 6.05 4.414 0.22 0.153 5.23-3.651zm-94.607-2.537v13.906l8.58-7.543 3.943 0.239 0.489 0.031 5.587-3.572c-0.166-0.009-0.406-0.022-0.406-0.022-3.692-0.183-6.466-0.38-9.677-0.605l-5.397-0.408-3.119-2.026zm36.757 2.104l-2.97 1.566s-8.98-0.305-13.424-0.523l-1.537-0.08-0.193-0.006v40.75l-11.873 5.615c0.54-0.043 1.066-0.08 1.623-0.106 7.097-0.471 13.894-0.818 20.774-1.062 0.59-0.024 1.14-0.045 1.71-0.063l-6.11-4.834-0.2-0.156v-36.117l0.54 0.029 3.16 0.151 8.52 7.801v-12.965h-0.02zm35.47 0.496l-3.66 1.064v19.512 21.512l-5.14 3.099c0.12 0 0.24 0.003 0.4 0 4.45 0.049 13.73 0.366 13.73 0.366l2.85 0.13-6.14-5.05-0.19-0.157v-0.244-38.109c0-0.615-0.21-1.486-1.85-2.123zm-3.66 20.576h-19.02v20.178l-11.93 4.49c0.31-0.006 1.5-0.035 1.51-0.039 5.65-0.125 10.54-0.182 15.38-0.182h0.14c0.08 0 0.17-0.006 0.26-0.006v-20.67h0.52l6.76 0.008h0.72l0.34 0.004h0.19v-0.006l5.13-3.777zm-19.02 0l6.37-3.533 0.03-0.002v-10.494l6.43-0.102v0.008l6.19-5.389c-4.75 0.136-10.03 0.202-15.73 0.274-2.81 0.133-3.29 2.318-3.29 4.127v15.111z" transform="matrix(.8 0 0 -.8 206.46 433.41)" fill="#024"/><path d="m0.85156 1.1191l7.1425 4.2247 22.783 3.748 19.637 3.2302 4.397-1.847-53.959-9.3559zm29.925 7.9727l-8.091 4.4062v67.039l-9.274 10.379 17.365-10.379v-71.445zm218.1-5.2598c-4.63 0.8354-23.62 4.2621-29.66 5.1485-5.91 0.864-8.91 4.0945-8.91 9.5995v9.465 0.725 0.168 0.697c0 0.034 0.01 0.067 0.01 0.101v0.643 0.072c0 0.221 0.01 0.435 0.01 0.647v0.115c0 0.213 0.01 0.423 0.01 0.627v0.031c0.01 0.198 0.01 0.394 0.02 0.584v0.08c0.01 0.193 0.01 0.382 0.02 0.567v0.08c0.02 0.376 0.04 0.737 0.07 1.082v0.072c0.01 0.17 0.03 0.338 0.04 0.5 0 0.013 0 0.026 0.01 0.039 0.01 0.159 0.03 0.316 0.04 0.469 0.01 0.011 0.01 0.02 0.01 0.031 0.02 0.155 0.04 0.308 0.06 0.457 0 0.019 0 0.037 0.01 0.057 0.04 0.299 0.09 0.587 0.15 0.861 0 0.015 0 0.03 0.01 0.045 0.02 0.135 0.05 0.267 0.09 0.396 0 0.013 0 0.025 0.01 0.038 0.06 0.261 0.13 0.511 0.22 0.751 0 0.015 0.01 0.029 0.01 0.043 0.04 0.12 0.09 0.238 0.13 0.352 0 0.003 0 0.006 0.01 0.01 0.04 0.114 0.09 0.225 0.14 0.336 0 0.007 0.01 0.016 0.01 0.023 0.05 0.109 0.11 0.217 0.16 0.322 0.01 0.012 0.01 0.022 0.02 0.034 0.11 0.211 0.23 0.417 0.37 0.615 0 0.01 0.01 0.021 0.02 0.031 0.07 0.098 0.14 0.196 0.21 0.291 0 0.006 0.01 0.012 0.01 0.018 0.08 0.097 0.15 0.192 0.23 0.287v0.002c0.08 0.093 0.17 0.187 0.25 0.279 0.01 0.01 0.02 0.02 0.03 0.029 0.18 0.185 0.36 0.365 0.56 0.543 0.01 0.005 0.01 0.012 0.02 0.018 0.1 0.088 0.2 0.174 0.31 0.262l0.03 0.021c0.22 0.176 0.45 0.351 0.69 0.525 0.01 0.008 0.02 0.017 0.03 0.024 0.13 0.088 0.25 0.176 0.38 0.264 0.01 0 0.01 0.002 0.01 0.002 0.14 0.091 0.28 0.183 0.42 0.275 0 0 1.03 0.644 2.66 1.512 0.01 0.005 0.02 0.009 0.03 0.013 2.32 1.24 5.91 3.034 10.01 4.967v0.002l6.22 2.938v22.101c0 1.643-0.14 3.296-1.18 4.244-0.71 0.648-1.72 0.877-3.18 0.735l-2.75-0.317-1.55-0.174-0.29-0.037-8.62 2.703c7.35 0.854 9.92 1.626 17.17 2.62 0.01-0.002 2.9 0.372 3.22 0.418 4.61 0.616 5.82-2.614 5.87-5.387v-28.151s-0.25-0.404-2.52-1.611c-1.43-0.76-3.81-1.842-6.96-3.324l-14.32-6.736c-0.95-0.966-2.31-2.903-2.31-6.131v-14.59c0-3.352 1.01-6.614 6.78-7.645 5.77-1.0268 15.39-2.5407 15.39-2.5407l10.06-4.3633zm-197.86 25.037l12.272 3.494 12.004-0.838c-0.362-0.032-1.717-0.162-1.717-0.162-7.207-0.681-14.98-1.54-21.885-2.41-0.293-0.041-0.503-0.064-0.674-0.084zm12.272 3.494l-6.297 2.705v43.289l-6.842 6.436 13.139-6.67v-45.76zm142.74-2.883l-16.21 1.764 0.09 26.449 4.88 19.698v-44.612l11.24-3.299zm-11.24 47.911l-22.73-43.153 5.31 22.393 13.25 25.521 4.17-4.761zm-22.73-43.153l-5.23 3.651v37.318l-6.32 4.885 11.55-3.453v-42.401zl4.48-1.877-15.97 0.961 11.49 0.916zm-94.607-2.537l3.119 2.024 5.397 0.41c3.211 0.225 5.985 0.422 9.677 0.605 0 0 0.24 0.011 0.406 0.02l-5.587 3.574v37.049l-6.252 5.744 11.873-5.615v-40.75l0.193 0.006 1.537 0.08c4.444 0.218 13.424 0.523 13.424 0.523l2.97-1.566c-0.16-0.001-0.38-0.006-0.39-0.006-13.919-0.34-22.895-1.012-35.98-2.076-0.12 0-0.252-0.008-0.387-0.022zm68.087 1.934c-0.46 0.004-0.98 0.02-1.56 0.039-0.17 0.004-0.33 0.009-0.5 0.014-0.3 0.007-0.61 0.017-0.91 0.025-0.04 0.001-0.07 0.002-0.11 0.002-0.34 0.009-0.68 0.018-1.02 0.027-1.78 0.047-3.6 0.091-5.44 0.129-0.2 0.004-0.41 0.01-0.61 0.014-0.31 0.006-0.61 0.011-0.92 0.017-0.27 0.005-0.55 0.009-0.82 0.014s-0.55 0.009-0.82 0.014c-0.33 0.005-0.66 0.008-0.99 0.013-0.23 0.004-0.46 0.008-0.69 0.01-0.57 0.008-1.13 0.012-1.7 0.016-2.41 0.017-3.76 0.06-5.54 0.711-1.83 0.722-2.05 1.637-2.05 2.265v37.649l-6.79 4.951 11.93-4.49v-20.178-0.002-15.109c0-1.809 0.48-3.994 3.29-4.127 5.7-0.072 10.98-0.138 15.73-0.274l3.66-1.064c-0.11-0.043-0.23-0.084-0.35-0.125-1.38-0.461-2.38-0.555-3.79-0.541zm0.48 1.73l-6.19 5.389-0.01 10.558-6.41 0.03h-0.04l-6.37 3.535h19.01 0.01v-19.512zm-0.01 19.514l-5.12 3.775-0.01 20.834 5.13-3.099v-21.51z" transform="matrix(.8 0 0 -.8 206.46 433.41)" fill="#4b92db"/></g></g></svg>