<svg width="278" height="89" viewBox="0 0 278 89" xmlns="http://www.w3.org/2000/svg">
 <g transform="matrix(1.3333 0 0 -1.3333 0 173.33)">
  <path d="m66.916 128.99c-3.1705 0-4.9578-1.0831-4.9578-2.9231 0-1.709 1.0825-2.544 3.353-2.792l2.8447-0.31274c1.1085-0.117 1.5007-0.35252 1.5007-0.92652 0-0.7305-0.7833-1.0701-2.4668-1.0701-1.905 0-3.3267 0.73071-4.0972 1.8142l-1.8779-1.3184c0.9525-1.461 3.105-2.3613 5.8455-2.3613 3.34 0 5.258 1.1351 5.258 3.1831 0 1.7225-1.0575 2.4795-3.6145 2.74l-2.5576 0.24829c-1.1875 0.1305-1.5784 0.35179-1.5784 0.92579 0 0.62699 0.78301 0.96533 2.2185 0.96533 1.774 0 3.1046-0.56064 3.7961-1.4736l1.6575 1.3967c-1.1485 1.291-2.9755 1.9043-5.324 1.9043zm64.611 0c-3.797 0-6.1597-2.1528-6.1597-5.0493 0-2.7925 2.0492-4.8406 5.4412-4.8406 2.349 0 3.6664 0.9388 4.2539 1.9043l0.11719-1.5916h2.009v5.1672h-5.9487v-1.6311h3.4966v-0.0388c-0.079-1.031-1.2529-1.971-3.2629-1.971-2.113 0-3.3523 1.2266-3.3523 3.0271 0 1.892 1.2134 3.1194 3.3274 3.1194 1.591 0 2.5567-0.67952 2.9092-1.593l2.844 0.47021c-0.5735 1.8655-2.7523 3.0271-5.6748 3.0271zm33.25 0c-3.7705 0-6.2102-1.9448-6.2102-4.9453 0-2.9885 2.4397-4.9446 6.2102-4.9446 3.7575 0 6.2109 1.9436 6.2109 4.9446 0 3.0005-2.4534 4.9453-6.2109 4.9453zm-142.86-0.31274 3.2102-9.2644h3.0007l2.1658 5.9238c0.1045 0.261 0.18274 0.56109 0.20874 0.80859h0.052c0.0265-0.2475 0.10498-0.54759 0.20948-0.80859l2.1658-5.9238h3.0007l3.2095 9.2644h-2.6741l-1.853-5.989c-0.0785-0.3-0.18329-0.60046-0.19629-0.88696h-0.0388c-0.039 0.2865-0.15625 0.59946-0.26075 0.88696l-2.2185 5.989h-2.74l-2.2178-5.989c-0.1045-0.2875-0.22174-0.60046-0.26074-0.88696h-0.052c-0.013 0.2865-0.10511 0.58696-0.18311 0.88696l-1.853 5.989zm26.06 0-4.6318-9.2644h2.8315l0.86133 1.8662h5.1665l0.86059-1.8662h2.8184l-4.6186 9.2644zm31.178 0v-9.2644h2.6353v3.7844h5.5715v-3.7844h2.636v9.2644h-2.636v-3.6541h-5.5715v3.6541zm18.466 0v-9.2644h2.6353v9.2644zm10.244 0v-9.2644h2.3884v6.3809h0.052c0.1305-0.3005 0.46973-0.76988 0.73023-1.0569l5.023-5.324h2.6228v9.2644h-2.387v-6.3157h-0.0527c-0.183 0.3655-0.45695 0.75689-0.73095 1.0569l-4.8398 5.2588zm35.052 0v-2.0486h3.8496v-7.2158h2.636v7.2158h3.8621v2.0486zm34.765 0v-9.2644h2.3884v6.3809h0.0513c0.131-0.3005 0.47045-0.76988 0.73095-1.0569l5.0237-5.324h2.6221v9.2644h-2.387v-6.3157h-0.0527c-0.1825 0.3655-0.45646 0.75689-0.73096 1.0569l-4.8398 5.2588zm-128.07-1.5791h0.0256c0.1565-0.4825 0.45709-1.2658 0.60059-1.5923l1.1873-2.5437h-3.6013l1.1872 2.5437c0.1435 0.3265 0.44409 1.1098 0.60059 1.5923zm115.17-0.0659c2.0615 0 3.4438-1.2 3.4438-2.9876s-1.3824-2.9883-3.4438-2.9883-3.4446 1.2008-3.4446 2.9883 1.3831 2.9876 3.4446 2.9876zm-163.67-12.812v-5.1995h206.39v5.1995zm9.3376-9.6555c-5.942 0-9.3376-3.1838-9.3376-9.4439v-11.778c0-6.2605 3.3957-9.6563 9.2322-9.6563 5.9415 0 9.4431 2.9712 9.4431 8.7012v1.697l-7.1096 2.9714v-5.1995c0-1.591-0.84853-2.6528-2.228-2.6528-1.379 0-2.2288 1.0618-2.2288 2.6528v14.537c0 1.592 0.84977 2.6528 2.2288 2.6528 1.3795 0 2.228-1.0608 2.228-2.6528v-4.5623l7.1096 2.6521v1.9102c0 5.4115-3.5016 8.1709-9.3376 8.1709zm20.692 0c-5.8365 0-9.3376-3.5018-9.3376-9.6563v-11.248c0-6.473 3.5012-9.9741 9.3376-9.9741 5.73 0 9.3384 3.5011 9.3384 9.9741v11.248c0 6.1545-3.6084 9.6563-9.3384 9.6563zm167.02 0c-4.5625 0-8.9128-2.2285-8.9128-7.322v-1.5916c0-3.183 1.1667-5.3054 4.2436-7.1089l4.8816-2.9714c1.5915-0.9555 1.9102-1.8037 1.9102-2.9707v-1.2737c0-1.2735-0.74306-2.1226-2.1226-2.1226-1.3795 0-2.228 0.84906-2.228 2.1226v3.8203l-6.8972-2.4404v-0.63721c0-4.881 3.2892-8.3826 9.1252-8.3826 6.0485 0 9.3384 3.2896 9.3384 7.2151v2.8652c0 2.971-1.1674 4.8809-4.7754 7.0034l-4.563 2.6528c-1.273 0.743-1.9102 1.698-1.9102 2.759v0.84888c0 1.379 0.74306 2.1218 2.1226 2.1218 1.379 0 2.1226-0.74283 2.1226-2.1218v-3.2893l7.0034 2.5466v0.42407c0 5.942-3.8204 7.8523-9.3384 7.8523zm-155.66-0.74267v-29.287h5.7297v20.903h0.21167l3.29-20.903h4.2451l3.2893 20.903h0.21167v-20.903h5.7305v29.287h-9.2314l-2.0171-16.553h-0.21167l-2.0164 16.553zm24.617 0v-29.287h5.7305v20.903h0.21167l3.2893-20.903h4.2451l3.2893 20.903h0.2124v-20.903h5.7297v29.287h-9.2314l-2.0164-16.553h-0.21167l-2.0171 16.553zm28.226 0-4.3506-29.287h6.791l0.74267 5.5173h5.0933l0.74268-5.5173h6.791l-4.3506 29.287zm17.084 0v-29.287h5.9421v16.235h0.2124l5.5173-16.235h6.4724v29.287h-5.9414v-14.007h-0.2124l-4.9878 14.007zm20.161 0v-29.287h8.2771c6.579 0 10.187 3.3956 10.187 9.9741v9.7625c0 6.0485-3.6075 9.5501-10.187 9.5501zm20.479 0v-29.287h14.644v4.6685h-7.7468v8.0647h7.0034v4.6692h-7.0034v7.2151h7.4282v4.6692zm16.447 0v-29.287h6.898v11.353h2.3335l2.6536-11.353h7.1096l-3.8203 13.263c2.122 1.2735 3.2893 3.5013 3.2893 6.6848v1.1675c0 5.1995-2.5472 8.1709-9.2322 8.1709zm-138.37-4.6692c1.3795 0 2.228-1.0608 2.228-2.6528v-14.643c0-1.591-0.84853-2.6528-2.228-2.6528-1.3795 0-2.228 1.0618-2.228 2.6528v14.643c0 1.592 0.84853 2.6528 2.228 2.6528zm108.34 0h1.3799c2.2285 0 3.0769-1.2734 3.0769-4.2444v-10.929c0-3.078-0.84841-4.7754-3.0769-4.7754h-1.3799zm36.927 0h1.8032c1.9105 0 2.6528-0.95461 2.6528-3.1831v-1.6978c0-2.759-0.74233-3.7141-2.6528-3.7141h-1.8032zm-75.445-1.0605h0.2124l1.6978-12.946h-3.6079zm-99.85-28.767v-5.1995h206.39v5.1995z" fill="#5a1414"/>
 </g>
</svg>