<?xml version="1.0" encoding="iso-8859-1"?>
<!-- Uploaded to: SVG Repo, www.svgrepo.com, Generator: SVG Repo Mixer Tools -->
<svg fill="#000000" height="800px" width="800px" version="1.1" id="Capa_1" xmlns="http://www.w3.org/2000/svg" xmlns:xlink="http://www.w3.org/1999/xlink" 
	 viewBox="0 0 463.002 463.002" xml:space="preserve">
<g>
	<path d="M439.501,320h-8.5V47.5c0-12.958-10.542-23.5-23.5-23.5h-168.5V7.5c0-4.142-3.357-7.5-7.5-7.5s-7.5,3.358-7.5,7.5V24
		h-168.5c-12.958,0-23.5,10.542-23.5,23.5V320h-8.5c-4.143,0-7.5,3.358-7.5,7.5s3.357,7.5,7.5,7.5h109.177l-44.2,117.867
		c-1.454,3.878,0.511,8.201,4.389,9.656c0.868,0.325,1.758,0.479,2.633,0.479c3.036,0,5.895-1.858,7.023-4.869L148.698,335h75.302
		v120.5c0,4.142,3.357,7.5,7.5,7.5s7.5-3.358,7.5-7.5V335h75.302l46.175,123.133c1.129,3.011,3.986,4.869,7.023,4.869
		c0.875,0,1.765-0.154,2.633-0.479c3.878-1.455,5.843-5.777,4.389-9.656L330.323,335h109.177c4.143,0,7.5-3.358,7.5-7.5
		S443.644,320,439.501,320z M47.001,47.5c0-4.687,3.813-8.5,8.5-8.5h352c4.687,0,8.5,3.813,8.5,8.5V320h-369V47.5z"/>
	<path d="M159.501,223c12.958,0,23.5-10.542,23.5-23.5s-10.542-23.5-23.5-23.5s-23.5,10.542-23.5,23.5S146.543,223,159.501,223z
		 M159.501,191c4.687,0,8.5,3.813,8.5,8.5s-3.813,8.5-8.5,8.5s-8.5-3.813-8.5-8.5S154.814,191,159.501,191z"/>
	<path d="M247.001,199.5c0-12.958-10.542-23.5-23.5-23.5s-23.5,10.542-23.5,23.5s10.542,23.5,23.5,23.5
		S247.001,212.458,247.001,199.5z M215.001,199.5c0-4.687,3.813-8.5,8.5-8.5s8.5,3.813,8.5,8.5s-3.813,8.5-8.5,8.5
		S215.001,204.187,215.001,199.5z"/>
	<path d="M311.001,199.5c0-12.958-10.542-23.5-23.5-23.5s-23.5,10.542-23.5,23.5s10.542,23.5,23.5,23.5
		S311.001,212.458,311.001,199.5z M279.001,199.5c0-4.687,3.813-8.5,8.5-8.5s8.5,3.813,8.5,8.5s-3.813,8.5-8.5,8.5
		S279.001,204.187,279.001,199.5z"/>
	<path d="M168.001,247.5c0,12.958,10.542,23.5,23.5,23.5s23.5-10.542,23.5-23.5s-10.542-23.5-23.5-23.5
		S168.001,234.542,168.001,247.5z M200.001,247.5c0,4.687-3.813,8.5-8.5,8.5s-8.5-3.813-8.5-8.5s3.813-8.5,8.5-8.5
		S200.001,242.813,200.001,247.5z"/>
	<path d="M255.501,271c12.958,0,23.5-10.542,23.5-23.5s-10.542-23.5-23.5-23.5s-23.5,10.542-23.5,23.5S242.543,271,255.501,271z
		 M255.501,239c4.687,0,8.5,3.813,8.5,8.5s-3.813,8.5-8.5,8.5s-8.5-3.813-8.5-8.5S250.814,239,255.501,239z"/>
	<path d="M327.501,264c-12.958,0-23.5,10.542-23.5,23.5s10.542,23.5,23.5,23.5s23.5-10.542,23.5-23.5S340.459,264,327.501,264z
		 M327.501,296c-4.687,0-8.5-3.813-8.5-8.5s3.813-8.5,8.5-8.5s8.5,3.813,8.5,8.5S332.188,296,327.501,296z"/>
	<path d="M328.001,199.5c0,12.958,10.542,23.5,23.5,23.5s23.5-10.542,23.5-23.5s-10.542-23.5-23.5-23.5
		S328.001,186.542,328.001,199.5z M351.501,191c4.687,0,8.5,3.813,8.5,8.5s-3.813,8.5-8.5,8.5s-8.5-3.813-8.5-8.5
		S346.814,191,351.501,191z"/>
	<path d="M234.197,164.803c1.465,1.464,3.385,2.197,5.304,2.197s3.839-0.732,5.304-2.197l10.696-10.696l10.696,10.696
		c1.465,1.464,3.385,2.197,5.304,2.197s3.839-0.732,5.304-2.197c2.929-2.929,2.929-7.678,0-10.606L266.108,143.5l10.697-10.697
		c2.929-2.929,2.929-7.678,0-10.606c-2.93-2.929-7.678-2.929-10.607,0l-10.696,10.696l-10.696-10.696
		c-2.93-2.929-7.678-2.929-10.607,0c-2.929,2.929-2.929,7.678,0,10.606l10.697,10.697l-10.697,10.697
		C231.269,157.125,231.269,161.875,234.197,164.803z"/>
	<path d="M170.197,164.803c1.465,1.464,3.385,2.197,5.304,2.197s3.839-0.732,5.304-2.197l10.696-10.696l10.696,10.696
		c1.465,1.464,3.385,2.197,5.304,2.197s3.839-0.732,5.304-2.197c2.929-2.929,2.929-7.678,0-10.606L202.108,143.5l10.697-10.697
		c2.929-2.929,2.929-7.678,0-10.606c-2.93-2.929-7.678-2.929-10.607,0l-10.696,10.696l-10.696-10.696
		c-2.93-2.929-7.678-2.929-10.607,0c-2.929,2.929-2.929,7.678,0,10.606l10.697,10.697l-10.697,10.697
		C167.269,157.125,167.269,161.875,170.197,164.803z"/>
	<path d="M308.805,122.197c-2.93-2.929-7.678-2.929-10.607,0c-2.929,2.929-2.929,7.678,0,10.606l10.697,10.697l-10.697,10.697
		c-2.929,2.929-2.929,7.678,0,10.606c1.465,1.464,3.385,2.197,5.304,2.197s3.839-0.732,5.304-2.197l10.696-10.696l10.696,10.696
		c1.465,1.464,3.385,2.197,5.304,2.197s3.839-0.732,5.304-2.197c2.929-2.929,2.929-7.678,0-10.606L330.108,143.5l10.697-10.697
		c2.929-2.929,2.929-7.678,0-10.606c-2.93-2.929-7.678-2.929-10.607,0l-10.696,10.696L308.805,122.197z"/>
	<path d="M202.197,108.803c1.465,1.464,3.385,2.197,5.304,2.197s3.839-0.732,5.304-2.197l10.696-10.696l10.696,10.696
		c1.465,1.464,3.385,2.197,5.304,2.197s3.839-0.732,5.304-2.197c2.929-2.929,2.929-7.678,0-10.606L234.108,87.5l10.697-10.697
		c2.929-2.929,2.929-7.678,0-10.606c-2.93-2.929-7.678-2.929-10.607,0l-10.696,10.696l-10.696-10.696
		c-2.93-2.929-7.678-2.929-10.607,0c-2.929,2.929-2.929,7.678,0,10.606L212.894,87.5l-10.697,10.697
		C199.269,101.125,199.269,105.875,202.197,108.803z"/>
	<path d="M266.197,108.803c1.465,1.464,3.385,2.197,5.304,2.197s3.839-0.732,5.304-2.197l10.696-10.696l10.696,10.696
		c1.465,1.464,3.385,2.197,5.304,2.197s3.839-0.732,5.304-2.197c2.929-2.929,2.929-7.678,0-10.606L298.108,87.5l10.697-10.697
		c2.929-2.929,2.929-7.678,0-10.606c-2.93-2.929-7.678-2.929-10.607,0l-10.696,10.696l-10.696-10.696
		c-2.93-2.929-7.678-2.929-10.607,0c-2.929,2.929-2.929,7.678,0,10.606L276.894,87.5l-10.697,10.697
		C263.269,101.125,263.269,105.875,266.197,108.803z"/>
	<path d="M295.001,287.5c0-4.142-3.357-7.5-7.5-7.5h-104c-35.565,0-64.5-28.935-64.5-64.5v-64.23l1.792,3.584
		c1.313,2.628,3.963,4.148,6.714,4.147c1.127,0,2.271-0.255,3.349-0.793c3.704-1.852,5.206-6.357,3.354-10.062l-16-32
		c-1.271-2.541-3.867-4.146-6.708-4.146s-5.438,1.605-6.708,4.146l-16,32c-1.853,3.705-0.351,8.21,3.354,10.062
		c3.706,1.854,8.211,0.351,10.063-3.354l1.792-3.584v64.23c0,43.836,35.663,79.5,79.5,79.5h104
		C291.644,295,295.001,291.642,295.001,287.5z"/>
</g>
</svg>